<?xml version="1.0" encoding="UTF-8" standalone="no"?>
<!-- Created with Inkscape (http://www.inkscape.org/) -->

<svg
   width="296.99997mm"
   height="210mm"
   viewBox="0 0 1122.5196 793.70081"
   version="1.1"
   id="svg1"
   xml:space="preserve"
   xmlns="http://www.w3.org/2000/svg"
   xmlns:svg="http://www.w3.org/2000/svg"><defs
     id="defs1"><rect
       x="344.23206"
       y="116.05538"
       width="710.7356"
       height="442.04187"
       id="rect2" /></defs><g
     id="layer1"><path
       style="fill:#ffffff;fill-opacity:1;stroke-width:0.58292"
       d="m 40.625329,704.12886 c -1.05121,-2.51589 -1.11819,-9.18979 -0.11942,-11.89879 2.32725,-6.31226 2.14099,16.73708 0.11942,11.89879 z m 0.0766,-5.81655 c -0.16171,-0.40076 -0.29402,-0.0729 -0.29402,0.72865 0,0.80151 0.13231,1.12941 0.29402,0.72865 0.16171,-0.40076 0.16171,-1.05654 0,-1.4573 z m 58.82199,-40.40909 c -1.17568,-1.17569 -1.16209,-2.23457 0.0416,-3.23346 0.740181,-0.61434 2.989681,-0.75214 9.909631,-0.60711 l 8.95209,0.18753 v -16.64935 -16.6518 l -1.8755,1.14054 c -4.7677,2.89945 -11.29065,1.95861 -15.64065,-2.25584 -4.323331,-4.18857 -5.202831,-9.79124 -2.385531,-15.19636 l 1.23367,-2.36683 -1.30428,-1.4928 c -1.77005,-2.02588 -2.66416,-4.65513 -2.71723,-7.99042 -0.11784,-7.40769 5.826421,-12.97778 13.391561,-12.54857 l 3.1773,0.18024 1.59966,-2.74235 c 1.76588,-3.02727 5.15795,-5.3336 8.77842,-5.96857 4.99183,-0.87555 11.58599,2.8225 13.59142,7.6222 1.03492,2.47688 1.02822,7.64132 -0.0125,9.63607 -0.75874,1.45421 -0.6985,1.65671 0.95376,3.20605 3.71365,3.48225 5.18598,10.66801 3.17297,15.48579 -2.29367,5.48952 -8.00999,9.17783 -14.23939,9.18757 l -3.64324,0.006 v 5.66154 5.66155 l 2.76886,-2.65572 c 5.16081,-4.94992 6.26421,-5.78472 7.43223,-5.62284 0.75396,0.10445 1.22552,0.67636 1.33477,1.61882 0.13786,1.18927 -0.90743,2.45642 -5.68346,6.88988 l -5.8524,5.43263 v 10.12887 10.12887 l 14.28153,-0.01 14.28152,-0.01 v -34.21073 c 0,-33.39715 -0.0273,-34.22776 -1.1475,-34.92732 -1.33846,-0.8359 -3.19504,-4.15936 -2.63588,-4.71856 0.40558,-0.40553 0.75094,-0.48493 2.61755,-0.60157 1.15156,-0.072 1.16583,-0.4858 1.16583,-33.79185 0,-33.52603 -0.007,-33.72534 -1.22551,-34.82808 -1.11678,-1.01067 -2.85492,-3.79932 -2.85492,-4.5804 0,-0.17622 0.9181,-0.3204 2.04022,-0.3204 h 2.04021 v -34.62135 c 0,-30.17786 -0.11179,-34.66425 -0.87103,-34.9556 -0.84174,-0.323 -3.20278,-3.70905 -3.20722,-4.59957 -0.001,-0.24045 0.91592,-0.43719 2.03804,-0.43719 h 2.04021 v -7.59676 c 0,-7.12305 0.11437,-7.89332 1.83408,-12.35266 l 1.83407,-4.75591 1.62939,4.33752 c 1.48516,3.95361 1.63239,5.04695 1.66344,12.35267 l 0.034,8.01514 h 4.92309 4.92308 l 0.17747,-27.25149 0.17745,-27.25149 1.39427,-3.08568 c 0.76684,-1.69713 2.39234,-3.94001 3.61223,-4.98418 l 2.21796,-1.8985 0.17675,-28.53369 c 0.17566,-28.35694 0.18506,-28.55171 1.51679,-31.44103 1.53022,-3.31994 3.20224,-5.28953 5.50926,-6.48974 l 1.60303,-0.83396 0.0128,-29.27674 c 0.0119,-27.23897 0.088,-29.44222 1.0926,-31.65423 0.9394,-2.06834 3.15203,-4.43575 4.68798,-5.01591 0.26873,-0.1015 0.65787,-1.75844 0.86473,-3.68207 0.56998,-5.30005 0.77872,-6.73341 3.87507,-26.6085 1.58068,-10.1462 2.87396,-18.76504 2.87396,-19.15298 0,-0.38795 0.36958,-0.56354 0.82127,-0.3902 0.86649,0.3325 1.27437,-1.44422 2.72009,-11.84882 0.80984,-5.82824 1.14392,-6.59773 3.45788,-7.96462 l 1.74455,-1.03054 v -16.19622 -16.19606 h -6.41211 -6.41212 v -3.20606 -3.20606 h 6.41212 6.41211 v -6.12065 -6.12066 h 3.20606 3.20606 v 6.12066 6.12065 h 6.12065 6.12066 v 3.20606 3.20606 h -6.12066 -6.12065 v 16.11424 16.11424 l 2.01485,1.81053 c 1.96768,1.76814 2.04656,2.01529 3.36861,10.55433 1.16644,7.53397 1.49258,8.72009 2.35704,8.57251 0.73247,-0.12505 1.00329,0.23159 1.00329,1.32121 0,0.82087 0.50642,4.7015 1.12536,8.62362 1.70729,10.81859 1.73091,10.97383 3.56929,23.45208 0.94461,6.41168 1.71747,12.54299 1.71747,13.62512 0,1.59916 0.48771,2.39682 2.60501,4.26054 1.64562,1.44853 2.82517,3.08572 3.20281,4.44539 0.3713,1.33688 0.59902,13.11805 0.60104,31.09503 l 0.004,28.94267 1.95902,1.15585 c 2.82657,1.66772 4.8567,4.6261 5.88577,8.57695 0.74741,2.86952 0.89901,8.00188 0.89901,30.43634 v 26.9848 l 2.26199,2.04358 c 1.24409,1.12396 2.88355,3.41853 3.64325,5.09903 1.38037,3.0535 1.38137,3.07284 1.56341,30.30694 l 0.18215,27.25149 h 4.91839 4.91839 l 0.034,-8.01514 c 0.0312,-7.34911 0.17183,-8.37843 1.69185,-12.38704 l 1.65778,-4.3719 0.6892,1.74876 c 2.90748,7.37741 2.92155,7.45109 2.92185,15.30164 l 2.9e-4,7.72368 h 2.0795 c 1.88496,0 2.04255,0.1227 1.68446,1.31157 -0.21728,0.72137 -1.15305,2.111 -2.0795,3.08808 l -1.68446,1.77651 v 34.21878 34.21877 h 2.04022 c 1.30127,0 2.04022,0.27868 2.04022,0.76945 0,0.4232 -0.9181,1.84205 -2.04022,3.15299 l -2.04022,2.38354 v 33.5709 33.57098 h 2.04022 c 1.2589,0 2.04022,0.28301 2.04022,0.73903 0,1.00874 -2.82124,5.09017 -3.51853,5.09017 -0.35423,0 -0.56191,12.68293 -0.56191,34.31624 v 34.31624 l 13.99007,-0.0157 13.99007,-0.0157 v -9.03828 -9.03823 l -4.08044,-5.42867 c -3.651,-4.85735 -4.08043,-5.70626 -4.08043,-8.06638 0,-2.37097 -0.13687,-2.63771 -1.35346,-2.63771 -4.79632,0 -11.06075,-4.64756 -12.95697,-9.6127 -1.44073,-3.77254 -0.93828,-9.82551 1.10503,-13.31213 1.51107,-2.57843 5.72669,-6.22115 7.19958,-6.22115 0.46764,0 0.7608,-0.72807 0.76279,-1.89449 0.009,-5.46691 4.33738,-11.35626 9.32346,-12.68701 7.24301,-1.93314 15.18996,2.34048 17.04927,9.16851 0.55772,2.04814 0.9646,2.52013 2.4481,2.83998 4.26306,0.91915 8.45215,4.24983 10.53444,8.37586 0.559,1.10766 1.14885,3.66458 1.31081,5.68212 0.37098,4.62168 -0.8819,8.14933 -4.15573,11.701 -2.80176,3.03958 -5.52016,4.53308 -9.27579,5.09629 l -2.75519,0.41318 v 2.84027 c 0,2.55226 -0.35461,3.32433 -3.49751,7.61497 l -3.49752,4.77475 v 9.773 9.773 l 9.60415,-0.01 c 5.28229,-0.006 9.87278,0.15634 10.20109,0.35925 0.81734,0.50516 0.75268,2.82582 -0.10256,3.68108 -0.53907,0.53908 -25.72988,0.6995 -109.8387,0.6995 -98.44022,0 -109.22899,-0.0898 -110.055211,-0.916 z m 15.270441,-0.0834 c -0.87592,-0.13302 -2.44981,-0.1357 -3.49752,-0.006 -1.04771,0.1297 -0.33104,0.23853 1.59259,0.2418 1.92364,0.006 2.78085,-0.10289 1.90493,-0.23585 z m 11.06503,0.0146 c -0.56106,-0.14667 -1.47916,-0.14667 -2.04022,0 -0.56106,0.1466 -0.10201,0.26656 1.02011,0.26656 1.12212,0 1.58117,-0.11996 1.02011,-0.26656 z m 10.48041,0.0495 c -0.1937,-0.1937 -0.69646,-0.21439 -1.11726,-0.046 -0.46502,0.18607 -0.32689,0.32422 0.35218,0.3522 0.6145,0.0251 0.95878,-0.1125 0.76508,-0.3062 z m 8.46448,-0.0338 c -0.40076,-0.1617 -1.05654,-0.1617 -1.4573,0 -0.40076,0.16171 -0.0729,0.29403 0.72865,0.29403 0.80151,0 1.1294,-0.13232 0.72865,-0.29403 z m 3.19391,0.0338 c -0.1937,-0.1937 -0.69646,-0.21439 -1.11726,-0.046 -0.46501,0.18607 -0.32689,0.32422 0.35218,0.3522 0.6145,0.0251 0.95878,-0.1125 0.76508,-0.3062 z m 17.48759,0 c -0.1937,-0.1937 -0.69647,-0.21439 -1.11727,-0.046 -0.46501,0.18607 -0.32688,0.32422 0.35219,0.3522 0.61449,0.0251 0.95878,-0.1125 0.76508,-0.3062 z m 79.27706,0 c -0.1937,-0.1937 -0.69647,-0.21439 -1.11727,-0.046 -0.46501,0.18607 -0.32688,0.32422 0.35219,0.3522 0.61449,0.0251 0.95878,-0.1125 0.76508,-0.3062 z m 5.24627,0 c -0.19369,-0.1937 -0.69646,-0.21439 -1.11726,-0.046 -0.46501,0.18607 -0.32688,0.32422 0.35218,0.3522 0.6145,0.0251 0.95878,-0.1125 0.76508,-0.3062 z m 43.13605,0 c -0.1937,-0.1937 -0.69646,-0.21439 -1.11726,-0.046 -0.46502,0.18607 -0.32689,0.32422 0.35218,0.3522 0.6145,0.0251 0.95878,-0.1125 0.76508,-0.3062 z m -108.80027,-21.2132 c 0.0264,-9.45787 0.16717,-17.98306 0.31285,-18.94488 1.31802,-8.70252 6.7109,-15.94297 14.69048,-19.72338 3.60225,-1.70661 4.35178,-1.84465 10.01433,-1.84465 5.73913,0 6.38338,0.12312 10.33537,1.97552 4.45711,2.08907 9.55039,6.74047 11.49178,10.49471 2.86439,5.53913 2.90063,5.83123 3.22271,25.98119 l 0.30714,19.21507 12.82423,0.021 12.82423,0.0216 0.15039,-34.24652 0.15039,-34.24653 h -51.30158 -51.30158 l -2e-5,34.24653 -2e-5,34.24652 h 13.11566 13.11565 z m 7.53007,-1.74876 c 0.28136,-18.28828 0.33793,-19.0392 1.63204,-21.66624 0.73731,-1.49676 2.52742,-3.81538 3.97803,-5.15248 9.14754,-8.43194 22.42214,-5.69111 28.06266,5.79416 l 1.5939,3.24552 0.1823,18.43483 0.18229,18.43483 h 1.45948 1.45949 l -0.18448,-18.72629 -0.18448,-18.72629 -1.80554,-3.78898 c -2.34411,-4.9192 -5.82188,-8.41905 -10.57713,-10.64428 -8.0051,-3.74602 -16.6525,-2.01073 -22.90043,4.59556 -3.37947,3.5733 -4.95366,6.72258 -5.68204,11.3674 -0.54125,3.45146 -0.93685,34.65287 -0.44937,35.44162 0.15948,0.25806 0.88663,0.43912 1.6159,0.40233 l 1.32592,-0.0668 z m 41.80559,14.72671 c -0.13399,-0.88604 -0.2472,-0.29945 -0.25157,1.30358 -0.005,1.60303 0.10524,2.32801 0.24361,1.61102 0.13836,-0.71694 0.14194,-2.0285 0.008,-2.9146 z m 27.98352,-2.0482 c -0.12931,-1.04197 -0.2351,-0.18945 -0.2351,1.89448 0,2.08394 0.10579,2.93646 0.2351,1.89449 0.12931,-1.04197 0.12931,-2.74701 0,-3.78897 z m -142.25585,3.53394 c -0.18608,-0.46505 -0.32421,-0.3269 -0.35218,0.35215 -0.0253,0.61451 0.11246,0.95878 0.30616,0.76508 0.1937,-0.19371 0.21441,-0.69647 0.0461,-1.11723 z m 37.92316,-10.52898 c -0.11382,-2.00379 -0.20696,-0.36432 -0.20696,3.64325 0,4.00757 0.0931,5.64703 0.20696,3.64324 0.11383,-2.00378 0.11383,-5.2827 0,-7.28649 z m -37.9174,5.54881 c -0.1478,-0.56718 -0.27844,-0.24424 -0.29032,0.71758 -0.0119,0.96181 0.10904,1.42582 0.26872,1.03118 0.15967,-0.39464 0.16939,-1.18158 0.0216,-1.74876 z m 114.27904,-8.17195 c -0.11568,-1.84348 -0.21033,-0.33518 -0.21033,3.35179 0,3.68697 0.0947,5.19527 0.21033,3.35179 0.11568,-1.84349 0.11568,-4.86009 0,-6.70358 z m 27.95333,5.25735 c -0.1478,-0.56718 -0.27844,-0.24424 -0.29032,0.71758 -0.0119,0.96182 0.10905,1.42582 0.26872,1.03118 0.15967,-0.39463 0.1694,-1.18158 0.0216,-1.74876 z m -142.25027,-0.88545 c -0.16171,-0.40076 -0.29402,-0.0729 -0.29402,0.72865 0,0.80151 0.13231,1.12941 0.29402,0.72865 0.16171,-0.40076 0.16171,-1.05654 0,-1.4573 z m 142.26799,-5.8292 c -0.12931,-1.04197 -0.2351,-0.18945 -0.2351,1.89449 0,2.08394 0.10579,2.93646 0.2351,1.89449 0.12931,-1.04197 0.12931,-2.74701 0,-3.78898 z m -142.25585,0.61936 c -0.18608,-0.46506 -0.32421,-0.32691 -0.35218,0.35214 -0.0253,0.61451 0.11246,0.95878 0.30616,0.76508 0.1937,-0.19371 0.21441,-0.69647 0.0461,-1.11722 z m 37.92817,-39.09205 c -0.0927,-7.13348 -0.16861,-1.29699 -0.16861,12.96996 0,14.26696 0.0759,20.10344 0.16861,12.96996 0.0928,-7.13347 0.0928,-18.80644 0,-25.93992 z m 76.33814,33.23318 c -0.13943,-0.72509 -0.2588,-0.26908 -0.26527,1.01335 -0.006,1.28242 0.1076,1.87566 0.2535,1.31833 0.14591,-0.55733 0.1512,-1.60659 0.0118,-2.33168 z m 27.98014,0 c -0.13943,-0.72509 -0.2588,-0.26908 -0.26528,1.01335 -0.006,1.28242 0.10761,1.87566 0.25351,1.31833 0.14591,-0.55733 0.1512,-1.60659 0.0118,-2.33168 z m -27.96778,-7.87618 c -0.12576,-1.20227 -0.22866,-0.21859 -0.22866,2.18595 0,2.40455 0.1029,3.38822 0.22866,2.18595 0.12576,-1.20227 0.12576,-3.16962 0,-4.3719 z m 27.98963,-7.2588 c -0.10826,-2.66027 -0.19743,-0.63976 -0.19817,4.48994 -5.8e-4,5.12969 0.0878,7.30619 0.19683,4.83677 0.109,-2.46948 0.1096,-6.6665 10e-4,-9.32671 z m 33.80406,1.51839 c -0.10989,-0.10988 -1.16089,0.25147 -2.33556,0.80297 -2.8879,1.35587 -2.88462,3.28568 0.0122,7.17067 l 2.18595,2.93162 0.16859,-5.35272 c 0.0927,-2.94404 0.0787,-5.44266 -0.0312,-5.55254 z m 7.72952,3.13226 c 0.002,-1.17628 -0.45097,-1.82262 -1.74626,-2.49239 l -1.74876,-0.90434 0.002,5.11552 0.002,5.11553 1.74377,-2.62314 c 0.95907,-1.44272 1.74489,-3.3378 1.74626,-4.21118 z m -41.53273,-28.28658 c -0.10306,-3.44651 -0.18737,-0.62664 -0.18737,6.26638 0,6.89303 0.0843,9.7129 0.18737,6.26639 0.10306,-3.44651 0.10306,-9.08626 0,-12.53277 z m -121.28404,7.90584 c -0.18609,-0.46505 -0.32421,-0.3269 -0.35219,0.35215 -0.0253,0.61451 0.11247,0.95878 0.30616,0.76508 0.1937,-0.19371 0.21441,-0.69648 0.0461,-1.11723 z m 70.5601,-3.74042 c -0.19369,-0.1937 -0.69646,-0.21439 -1.11726,-0.0461 -0.46501,0.18607 -0.32688,0.32422 0.35218,0.3522 0.6145,0.0251 0.95878,-0.1125 0.76508,-0.3062 z m 49.70604,-50.94472 v -33.80933 h -51.29692 -51.29692 v 33.80933 33.80934 h 51.29692 51.29692 z m -82.77458,6.48539 c 0,-18.87301 0.17521,-20.17275 3.33478,-24.73852 4.59022,-6.63306 13.45997,-6.69723 18.46631,-0.13361 3.48367,4.56735 3.84737,6.97539 3.84737,25.473 v 16.81344 h -12.82423 -12.82423 z m 7.72369,16.41997 c -0.72137,-0.13891 -1.90178,-0.13891 -2.62314,0 -0.72136,0.13897 -0.13116,0.25264 1.31157,0.25264 1.44272,0 2.03293,-0.11367 1.31157,-0.25264 z m 3.19391,0.0592 c -0.1937,-0.19371 -0.69646,-0.2144 -1.11726,-0.0461 -0.46502,0.18607 -0.32689,0.32422 0.35218,0.3522 0.6145,0.0251 0.95878,-0.1125 0.76508,-0.3062 z m -9.94862,-3.29105 c -0.16171,-0.40076 -0.29402,-0.0729 -0.29402,0.72865 0,0.80151 0.13231,1.1294 0.29402,0.72865 0.16171,-0.40076 0.16171,-1.05654 0,-1.4573 z m 21.62996,-13.01467 c 0.12808,-11.34496 -0.0138,-14.45413 -0.78052,-17.11085 -2.22793,-7.71931 -8.18278,-11.36926 -13.12028,-8.04184 -2.64454,1.78216 -4.40028,4.52334 -5.15688,8.05123 -0.58274,2.71722 -0.92596,30.35122 -0.38371,30.89333 0.13363,0.13361 4.52739,0.20449 9.76391,0.15763 l 9.52094,-0.0853 z m -17.35266,1.11075 v -10.68418 h 3.20606 3.20605 v 10.81397 10.81391 l -3.20605,-0.1297 -3.20606,-0.12969 z m 5.67671,-0.31787 c -0.11813,-1.6939 -0.21601,-0.45671 -0.21753,2.74935 -0.002,3.20605 0.0951,4.592 0.21477,3.07985 0.11964,-1.51215 0.12088,-4.13529 0.003,-5.8292 z m -4.70773,5.22675 c -0.16171,-0.40075 -0.29402,-0.0729 -0.29402,0.72865 0,0.80152 0.13231,1.12941 0.29402,0.72865 0.16171,-0.40076 0.16171,-1.05654 0,-1.4573 z m 0.0179,-4.94374 c -0.1478,-0.56718 -0.27845,-0.24424 -0.29033,0.71758 -0.0119,0.96181 0.10905,1.42582 0.26872,1.03118 0.15968,-0.39464 0.1694,-1.18158 0.0216,-1.74876 z m -0.0179,-4.96589 c -0.16171,-0.40076 -0.29402,-0.0729 -0.29402,0.72865 0,0.80151 0.13231,1.12941 0.29402,0.72865 0.16171,-0.40076 0.16171,-1.05654 0,-1.4573 z m 4.67912,-1.4573 c -0.14662,-0.56106 -0.26658,-0.10201 -0.26658,1.02011 0,1.12212 0.11996,1.58117 0.26658,1.02011 0.14662,-0.56106 0.14662,-1.47916 0,-2.04022 z m -4.66698,-2.00378 c -0.18608,-0.46506 -0.32421,-0.32691 -0.35218,0.35214 -0.0253,0.61451 0.11246,0.95878 0.30616,0.76508 0.1937,-0.1937 0.21441,-0.69647 0.046,-1.11722 z m 4.84807,-0.47363 c 0,-1.01649 -0.35466,-1.15278 -2.76886,-1.064 l -2.76887,0.10184 2.47741,0.22314 c 1.66651,0.1501 2.4774,0.49834 2.4774,1.064 0,0.46243 0.13116,0.84086 0.29146,0.84086 0.16031,0 0.29146,-0.52462 0.29146,-1.16584 z m 2.90096,19.67354 c -0.008,-0.0802 -0.0731,-4.93302 -0.14573,-10.78407 l -0.13209,-10.63834 3.35179,6e-5 3.35179,6e-5 v 10.78401 10.78401 h -3.20606 c -1.76333,0 -3.2122,-0.0656 -3.2197,-0.14573 z m 3.08507,-20.63885 c -0.39466,-0.15966 -1.1816,-0.1694 -1.74876,-0.0216 -0.56716,0.14783 -0.24427,0.27846 0.71755,0.29035 0.96182,0.0117 1.42586,-0.10906 1.03121,-0.26872 z m -11.81197,-4.71815 c 0.006,-2.82075 1.17582,-5.94945 3.00353,-8.03112 2.94806,-3.35761 3.40533,-2.84669 3.40533,3.80495 v 5.8292 h -3.20605 c -3.10969,0 -3.20596,-0.0484 -3.20281,-1.60303 z m 2.91135,0.79662 c 0,-0.12288 -0.52463,-0.36066 -1.16584,-0.52836 -0.64121,-0.16765 -1.16584,-0.0671 -1.16584,0.22349 0,0.29058 0.52463,0.52836 1.16584,0.52836 0.64121,0 1.16584,-0.10056 1.16584,-0.22349 z m 2.4774,-0.16258 c -0.40075,-0.1617 -1.05654,-0.1617 -1.45729,0 -0.40076,0.1617 -0.0729,0.29402 0.72864,0.29402 0.80152,0 1.12941,-0.13232 0.72865,-0.29402 z m 3.06033,-4.86091 c 0,-6.51587 0.37295,-7.00255 3.19984,-4.17563 1.54446,1.54445 3.50374,6.54672 3.50374,8.94549 0,0.90189 -0.49996,1.05998 -3.35179,1.05957 l -3.35179,-4.7e-4 z m 3.63111,4.89478 c -0.1937,-0.19371 -0.69647,-0.2144 -1.11727,-0.0461 -0.46501,0.18606 -0.32688,0.32422 0.35218,0.3522 0.6145,0.0251 0.95878,-0.11251 0.76509,-0.30621 z m -16.34284,-1.23976 c -0.14779,-0.56718 -0.27844,-0.24424 -0.29032,0.71758 -0.0119,0.96182 0.10905,1.42582 0.26872,1.03118 0.15968,-0.39463 0.1694,-1.18158 0.0216,-1.74876 z m 36.4439,13.39608 c 0.20979,-16.70613 0.3084,-18.10723 1.45042,-20.60796 2.50037,-5.47513 7.26277,-9.22458 11.75392,-9.2539 2.7339,-0.0181 7.02067,2.50311 9.19916,5.40984 3.47337,4.6345 3.70395,6.20337 3.70395,25.20101 v 17.17578 h -13.16627 -13.16627 z m 7.59976,16.95579 c -0.40076,-0.1617 -1.05654,-0.1617 -1.4573,0 -0.40076,0.1617 -0.0729,0.29402 0.72865,0.29402 0.80151,0 1.1294,-0.13232 0.72865,-0.29402 z m 2.9146,0 c -0.40076,-0.1617 -1.05655,-0.1617 -1.4573,0 -0.40076,0.1617 -0.0729,0.29402 0.72865,0.29402 0.80151,0 1.1294,-0.13232 0.72865,-0.29402 z m 2.61099,0.0338 c -0.1937,-0.19371 -0.69647,-0.2144 -1.11726,-0.0461 -0.46502,0.18606 -0.32689,0.32422 0.35218,0.3522 0.6145,0.0251 0.95878,-0.11251 0.76508,-0.30621 z m 3.80112,-0.0338 c -0.40076,-0.1617 -1.05654,-0.1617 -1.4573,0 -0.40076,0.1617 -0.0729,0.29402 0.72865,0.29402 0.80152,0 1.12941,-0.13232 0.72865,-0.29402 z m 5.8292,0 c -0.40076,-0.1617 -1.05655,-0.1617 -1.4573,0 -0.40076,0.1617 -0.0729,0.29402 0.72865,0.29402 0.80151,0 1.1294,-0.13232 0.72865,-0.29402 z m 0.30207,-16.56156 c 0.16863,-15.2736 -0.20504,-18.09563 -2.93234,-22.14465 -0.74226,-1.10195 -2.47993,-2.62763 -3.86149,-3.39032 -2.29228,-1.26546 -2.7229,-1.32352 -4.92448,-0.66389 -1.32689,0.39755 -3.23992,1.60006 -4.25116,2.67228 -3.36134,3.56409 -3.71473,5.71943 -3.71422,22.65325 l 4.6e-4,15.19782 9.76344,-0.0829 9.76345,-0.0828 z m -17.36612,12.13854 c -0.008,-0.0802 -0.0731,-4.93302 -0.14573,-10.78407 l -0.13208,-10.63834 3.35179,6e-5 3.35178,6e-5 v 10.78401 10.78401 H 224.227 c -1.76333,0 -3.2122,-0.0656 -3.21971,-0.14573 z m 4.23982,-20.66788 c -0.72137,-0.13891 -1.90178,-0.13891 -2.62314,0 -0.72137,0.13897 -0.13116,0.25264 1.31157,0.25264 1.44272,0 2.03293,-0.11367 1.31157,-0.25264 z m 4.32332,20.42498 c -0.21374,-0.21376 -0.38862,-5.06657 -0.38862,-10.78402 v -10.39534 h 3.49752 3.49752 v 10.78401 10.78401 h -3.1089 c -1.7099,0 -3.28378,-0.17488 -3.49752,-0.38863 z m 2.36811,-20.36576 c -0.1937,-0.1937 -0.69647,-0.21439 -1.11727,-0.0461 -0.46501,0.18607 -0.32688,0.32422 0.35219,0.3522 0.61449,0.0251 0.95878,-0.1125 0.76508,-0.3062 z m 3.2293,-0.0303 c -0.39466,-0.15966 -1.1816,-0.16939 -1.74876,-0.0216 -0.56716,0.14777 -0.24427,0.27847 0.71755,0.2903 0.96182,0.0117 1.42586,-0.10901 1.03121,-0.26867 z m -14.01975,-6.14624 c 0.75128,-4.13343 2.45363,-7.25893 4.54193,-8.33878 l 1.74303,-0.90137 v 6.13563 6.13558 h -3.41793 -3.41795 z m 8.03372,-3.08959 c 0,-3.36636 0.22695,-6.12066 0.50432,-6.12066 1.05893,0 3.65411,2.53104 4.70271,4.58641 0.60173,1.17954 1.27998,3.38438 1.50722,4.89973 l 0.41316,2.75517 h -3.5637 -3.56371 z m 3.06033,5.15172 c -0.40076,-0.1617 -1.05654,-0.1617 -1.4573,0 -0.40076,0.16171 -0.0729,0.29397 0.72865,0.29397 0.80152,0 1.12941,-0.13226 0.72865,-0.29397 z m 7.26159,-0.91874 c -0.13944,-0.72509 -0.25881,-0.26913 -0.26528,1.01329 -0.006,1.28243 0.10761,1.87572 0.25351,1.31839 0.1459,-0.55733 0.1512,-1.60658 0.0118,-2.33168 z M 229.0239,522.64909 c -0.1937,-0.1937 -0.69647,-0.21439 -1.11726,-0.046 -0.46502,0.18607 -0.32689,0.32422 0.35218,0.35214 0.6145,0.0251 0.95878,-0.11244 0.76508,-0.30614 z m -71.73809,54.41799 c -0.16171,-0.40075 -0.29402,-0.0729 -0.29402,0.72865 0,0.80152 0.13231,1.12941 0.29402,0.72865 0.16171,-0.40076 0.16171,-1.05654 0,-1.4573 z m 104.39147,-16.58295 c -0.10501,-3.14258 -0.19139,-0.72976 -0.19195,5.36175 -5.6e-4,6.09151 0.0854,8.66265 0.19094,5.71372 0.10557,-2.94893 0.10603,-7.93289 0.001,-11.07547 z m -104.35071,8.42208 c -0.12273,-1.36258 -0.22314,-0.24774 -0.22314,2.47741 0,2.72515 0.10041,3.83998 0.22314,2.4774 0.12272,-1.36257 0.12272,-3.59224 0,-4.95481 z m -0.005,-8.16088 c -0.12931,-1.04196 -0.2351,-0.18944 -0.2351,1.89449 0,2.08394 0.10579,2.93646 0.2351,1.89449 0.12931,-1.04197 0.12931,-2.74701 0,-3.78898 z m 0.0125,-20.72465 c -0.1046,-3.10889 -0.18977,-0.40618 -0.18925,6.00594 5.2e-4,6.41211 0.0861,8.95568 0.19019,5.65245 0.10409,-3.30329 0.10367,-8.54956 -0.001,-11.65839 z m 104.33817,4.40291 c -0.11776,-1.68318 -0.2141,-0.30604 -0.2141,3.06032 0,3.36637 0.0963,4.74351 0.2141,3.06033 0.11775,-1.68318 0.11775,-4.43747 0,-6.12065 z m -0.005,-9.61818 c -0.12576,-1.20227 -0.22865,-0.21859 -0.22865,2.18595 0,2.40455 0.10289,3.38822 0.22865,2.18595 0.12577,-1.20227 0.12577,-3.16962 0,-4.3719 z M 157.3303,524.31286 c -0.11568,-1.84348 -0.21032,-0.33518 -0.21032,3.35179 0,3.68697 0.0946,5.19527 0.21032,3.35179 0.11568,-1.84349 0.11568,-4.86009 0,-6.70358 z m 104.34552,-6.12065 c -0.10801,-2.645 -0.19638,-0.48091 -0.19638,4.80908 0,5.29 0.0884,7.45409 0.19638,4.80909 0.10801,-2.645 0.10801,-6.97318 0,-9.61817 z m -104.35165,-3.78898 c -0.12576,-1.20227 -0.22865,-0.21859 -0.22865,2.18595 0,2.40454 0.10289,3.38822 0.22865,2.18595 0.12577,-1.20227 0.12577,-3.16963 0,-4.3719 z m -7.27394,-7.5267 c -0.40076,-0.16171 -1.05654,-0.16171 -1.4573,0 -0.40076,0.1617 -0.0729,0.29401 0.72865,0.29401 0.80151,0 1.1294,-0.13231 0.72865,-0.29401 z m 47.4958,0.0339 c -0.1937,-0.19369 -0.69647,-0.21441 -1.11727,-0.046 -0.46501,0.18608 -0.32688,0.32421 0.35219,0.35218 0.61449,0.0253 0.95878,-0.11246 0.76508,-0.30616 z m 19.24849,-0.0497 c -0.56106,-0.14662 -1.47916,-0.14662 -2.04022,0 -0.56106,0.14662 -0.10201,0.26659 1.02011,0.26659 1.12212,0 1.58117,-0.11997 1.02011,-0.26659 z m 2.90245,0.0497 c -0.1937,-0.19369 -0.69646,-0.21441 -1.11726,-0.046 -0.46501,0.18608 -0.32689,0.32421 0.35218,0.35218 0.6145,0.0253 0.95878,-0.11246 0.76508,-0.30616 z m 6.41212,0 c -0.1937,-0.19369 -0.69647,-0.21441 -1.11727,-0.046 -0.46501,0.18608 -0.32688,0.32421 0.35219,0.35218 0.61449,0.0253 0.95878,-0.11246 0.76508,-0.30616 z m 2.33168,0 c -0.1937,-0.19369 -0.69647,-0.21441 -1.11727,-0.046 -0.46501,0.18608 -0.32688,0.32421 0.35218,0.35218 0.6145,0.0253 0.95878,-0.11246 0.76509,-0.30616 z m 10.49255,0 c -0.1937,-0.19369 -0.69647,-0.21441 -1.11727,-0.046 -0.46501,0.18608 -0.32688,0.32421 0.35219,0.35218 0.61449,0.0253 0.95878,-0.11246 0.76508,-0.30616 z m 2.9146,0 c -0.1937,-0.19369 -0.69647,-0.21441 -1.11727,-0.046 -0.46501,0.18608 -0.32688,0.32421 0.35218,0.35218 0.6145,0.0253 0.95878,-0.11246 0.76509,-0.30616 z m 11.37907,-0.0339 c -0.40076,-0.16171 -1.05654,-0.16171 -1.4573,0 -0.40076,0.1617 -0.0729,0.29401 0.72865,0.29401 0.80151,0 1.12941,-0.13231 0.72865,-0.29401 z m 16.01814,0.0339 c -0.19369,-0.19369 -0.69646,-0.21441 -1.11726,-0.046 -0.46501,0.18608 -0.32688,0.32421 0.35218,0.35218 0.6145,0.0253 0.95878,-0.11246 0.76508,-0.30616 z m -8.5857,-35.2059 v -34.39225 h -51.29692 -51.29692 v 34.39225 34.39225 h 51.29692 51.29692 z m -63.43307,7.38487 0.1863,-16.51482 1.76255,-2.84922 c 3.44944,-5.57613 9.72085,-8.11701 14.31693,-5.80054 3.27289,1.64957 6.28477,4.97048 7.53251,8.30537 1.05125,2.8097 1.16209,4.54951 1.16209,18.24 v 15.13404 H 209.6134 197.04007 Z m 21.46286,-0.44747 c 0,-15.26312 -0.17954,-16.29173 -3.37868,-19.35595 -2.65704,-2.545 -5.25939,-3.34963 -7.89779,-2.44195 -1.23266,0.42408 -2.82601,1.32044 -3.54076,1.99191 -0.71475,0.67148 -1.42061,1.09979 -1.56858,0.95183 -0.14797,-0.14797 -0.29952,0.17752 -0.33678,0.72332 -0.0372,0.54579 -0.47542,2.0416 -0.9737,3.32403 -0.72129,1.85638 -0.91118,5.03487 -0.93154,15.59309 l -0.0256,13.26142 h 9.32671 9.32671 z m -16.32175,1.80639 v -9.90963 l 3.06033,4.7e-4 3.06033,4.6e-4 v 9.9095 9.90949 l -3.06033,-3.3e-4 -3.06033,-3.2e-4 z m 3.92257,8.39161 c -0.1937,-0.19369 -0.69647,-0.21441 -1.11727,-0.046 -0.46501,0.18608 -0.32688,0.32421 0.35219,0.35218 0.61449,0.0253 0.95878,-0.11246 0.76508,-0.30616 z m 4.23831,-8.39161 v -9.90963 h 3.20605 3.20606 v 9.90963 9.90964 h -3.20606 -3.20605 z m -8.1613,-13.28014 c 5.8e-4,-2.19647 1.47359,-5.03775 3.49188,-6.73603 1.04567,-0.87987 1.98047,-1.52051 2.07735,-1.42363 0.0969,0.0969 0.23634,2.23792 0.30991,4.75788 l 0.13379,4.58174 -3.00668,0.0752 c -2.76404,0.0691 -3.00665,-0.0322 -3.00625,-1.25512 z m 8.1605,-3.47879 c 4.4e-4,-2.645 0.22774,-4.80909 0.50511,-4.80909 0.92748,0 3.59034,2.41684 4.39195,3.98618 0.43589,0.85335 0.97059,2.37891 1.18822,3.39012 l 0.3957,1.83857 -3.24088,0.20165 -3.24089,0.20165 z m -11.25939,26.55927 c -0.18609,-0.46501 -0.32421,-0.32689 -0.35218,0.35218 -0.0253,0.61449 0.11246,0.95878 0.30616,0.76508 0.1937,-0.1937 0.21441,-0.69647 0.046,-1.11726 z m -0.0121,-21.02154 c -0.16172,-0.40076 -0.29402,-0.0729 -0.29402,0.72865 0,0.80152 0.1323,1.12941 0.29402,0.72865 0.1617,-0.40076 0.1617,-1.05654 0,-1.4573 z m 10.83513,-15.39623 c -0.40075,-0.16171 -1.05654,-0.16171 -1.45729,0 -0.40076,0.1617 -0.0729,0.29401 0.72865,0.29401 0.80151,0 1.1294,-0.13231 0.72864,-0.29401 z m -52.75464,0.49017 c -0.0901,-9.19453 -0.16383,-1.50312 -0.16375,17.09201 8e-5,18.59513 0.0738,26.11793 0.1639,16.71732 0.0901,-9.40061 0.09,-24.61481 -1.5e-4,-33.80933 z m 104.34191,26.0168 c -0.0986,-4.58803 -0.17952,-0.99708 -0.17982,7.97988 -2.9e-4,8.97696 0.0804,12.7308 0.17929,8.34187 0.0989,-4.38893 0.0991,-11.73372 5.3e-4,-16.32175 z m -0.0238,-11.68686 c -0.13944,-0.7251 -0.25881,-0.26911 -0.26528,1.01331 -0.006,1.28242 0.10761,1.87569 0.25351,1.31837 0.1459,-0.55733 0.1512,-1.60658 0.0118,-2.33168 z m -10e-4,-5.25307 c -0.13894,-0.72137 -0.25262,-0.13116 -0.25262,1.31156 0,1.44273 0.11368,2.03294 0.25262,1.31157 0.13894,-0.72136 0.13894,-1.90177 0,-2.62313 z m 0.0219,-16.35037 c -0.10776,-2.62926 -0.19537,-0.32113 -0.1947,5.12916 5.8e-4,5.4503 0.0888,7.60151 0.19592,4.78047 0.10709,-2.82105 0.10654,-7.28038 -0.001,-9.90963 z m -0.0209,-8.12546 c -0.13944,-0.7251 -0.25881,-0.26911 -0.26528,1.01331 -0.006,1.28243 0.10761,1.87569 0.25351,1.31837 0.1459,-0.55732 0.15119,-1.60658 0.0118,-2.33168 z m -84.78969,-6.65924 c -0.40075,-0.1617 -1.05654,-0.1617 -1.4573,0 -0.40075,0.16171 -0.0729,0.29402 0.72865,0.29402 0.80152,0 1.12941,-0.13231 0.72865,-0.29402 z m 3.77684,0.0339 c -0.1937,-0.1937 -0.69647,-0.21441 -1.11727,-0.046 -0.46501,0.18608 -0.32688,0.32421 0.35219,0.35218 0.61449,0.0253 0.95878,-0.11247 0.76508,-0.30617 z m 19.23634,0 c -0.1937,-0.1937 -0.69646,-0.21441 -1.11726,-0.046 -0.46501,0.18608 -0.32689,0.32421 0.35218,0.35218 0.6145,0.0253 0.95878,-0.11247 0.76508,-0.30617 z m 12.82423,0 c -0.1937,-0.1937 -0.69646,-0.21441 -1.11726,-0.046 -0.46501,0.18608 -0.32688,0.32421 0.35218,0.35218 0.6145,0.0253 0.95878,-0.11247 0.76508,-0.30617 z m 31.79236,-0.0302 c -0.39466,-0.15968 -1.1816,-0.16939 -1.74876,-0.0216 -0.56716,0.14779 -0.24427,0.27844 0.71755,0.29032 0.96182,0.0119 1.42586,-0.10904 1.03121,-0.26872 z m 12.23021,-0.004 c -0.40076,-0.16171 -1.05654,-0.16171 -1.4573,0 -0.40075,0.16171 -0.0729,0.29401 0.72865,0.29401 0.80152,0 1.12941,-0.1323 0.72865,-0.29401 z m -69.04836,-26.28269 c -0.16882,-24.60396 -0.21872,-25.59627 -1.41583,-28.15686 -1.51432,-3.23909 -4.31241,-6.13707 -6.29067,-6.51524 -0.85663,-0.16375 -2.22053,0.17568 -3.26972,0.81373 -3.44324,2.09396 -3.47864,2.42203 -3.47864,32.23662 v 27.12448 h 7.31492 7.31493 z m 38.5807,4.08044 c -0.011,-23.28004 -0.39831,-27.19364 -3.15707,-31.9011 -3.13819,-5.35493 -9.69637,-8.90745 -15.12897,-8.19526 -6.18733,0.81112 -11.35153,5.02392 -13.90258,11.34131 -1.27491,3.15715 -1.31857,3.93883 -1.49246,26.71483 l -0.17913,23.46251 h 16.93517 16.93516 z m -23.88959,-3.08928 c 0,-17.07929 0.0586,-17.44249 3.29975,-20.45348 0.91029,-0.84565 2.23217,-1.71168 2.93751,-1.92452 1.8426,-0.55602 4.37741,0.95962 6.19282,3.70288 l 1.55999,2.35733 v 16.04278 16.04279 h -6.99503 -6.99504 z m 3.93471,14.78303 c -0.56106,-0.14661 -1.47916,-0.14661 -2.04022,0 -0.56106,0.14663 -0.10201,0.26659 1.02011,0.26659 1.12212,0 1.58117,-0.11996 1.02011,-0.26659 z m 6.12066,-0.01 c -0.72137,-0.13894 -1.90178,-0.13894 -2.62314,0 -0.72137,0.13894 -0.13116,0.25262 1.31157,0.25262 1.44272,0 2.03293,-0.11368 1.31157,-0.25262 z m 17.76015,5.81141 c -0.13399,-0.88607 -0.24719,-0.29948 -0.25157,1.30355 -0.005,1.60303 0.10525,2.328 0.24361,1.61105 0.13836,-0.71696 0.14194,-2.02853 0.008,-2.9146 z m 15.30773,-23.03334 c -0.0121,-25.44299 -0.0766,-27.10055 -1.14625,-29.45734 -2.17626,-4.79494 -6.71188,-5.03998 -9.97254,-0.53877 -3.3033,4.56009 -3.4414,5.86735 -3.4414,32.57932 v 24.37682 h 7.2865 7.28649 z m 16.18389,15.44737 c -0.11215,-2.16409 -0.20391,-0.39347 -0.20391,3.93471 0,4.32817 0.0918,6.09879 0.20391,3.9347 0.11216,-2.16409 0.11216,-5.70532 0,-7.86941 z m -104.3426,-0.58292 c -0.11215,-2.16409 -0.20391,-0.39347 -0.20391,3.93471 0,4.32817 0.0918,6.09879 0.20391,3.9347 0.11216,-2.16409 0.11216,-5.70532 0,-7.86941 z m 34.38246,4.96526 c -0.12974,-1.04771 -0.23856,-0.33105 -0.24184,1.59258 -0.003,1.92364 0.10288,2.78086 0.23589,1.90493 0.13301,-0.87592 0.13568,-2.4498 0.006,-3.49751 z m 38.48351,-14.29197 c -0.10927,-2.4847 -0.19867,-0.45177 -0.19867,4.51762 0,4.96939 0.0894,7.00232 0.19867,4.51763 0.10927,-2.48469 0.10927,-6.55056 0,-9.03525 z m -38.50415,6.41211 c -0.14663,-0.56106 -0.26659,-0.10201 -0.26659,1.02011 0,1.12212 0.11996,1.58117 0.26659,1.02011 0.14662,-0.56106 0.14662,-1.47916 0,-2.04022 z m 0.0104,-4.3651 c -0.13943,-0.7251 -0.2588,-0.26911 -0.26528,1.01331 -0.006,1.28243 0.10761,1.87569 0.25351,1.31837 0.14591,-0.55732 0.1512,-1.60658 0.0118,-2.33168 z m -0.0262,-5.83599 c -0.16171,-0.40076 -0.29402,-0.0729 -0.29402,0.72865 0,0.80151 0.13231,1.12941 0.29402,0.72865 0.16171,-0.40076 0.16171,-1.05654 0,-1.4573 z m 38.49059,-3.19497 c -0.1478,-0.56716 -0.27844,-0.24426 -0.29032,0.71756 -0.0119,0.96182 0.10904,1.42586 0.26872,1.0312 0.15967,-0.39465 0.16939,-1.18159 0.0216,-1.74876 z m 0.008,-4.37619 c -0.13944,-0.7251 -0.25881,-0.26911 -0.26528,1.01331 -0.006,1.28243 0.10761,1.87569 0.25351,1.31837 0.1459,-0.55732 0.15119,-1.60658 0.0118,-2.33168 z m -38.47269,-1.16584 c -0.13944,-0.7251 -0.25881,-0.26911 -0.26528,1.01332 -0.006,1.28242 0.10761,1.87568 0.25351,1.31836 0.1459,-0.55732 0.15119,-1.60658 0.0118,-2.33168 z m 38.46223,-3.21285 c -0.14662,-0.56106 -0.26658,-0.10201 -0.26658,1.02011 0,1.12212 0.11996,1.58117 0.26658,1.02011 0.14662,-0.56106 0.14662,-1.47916 0,-2.04022 z m -38.47631,0.32789 c -0.18609,-0.46501 -0.32421,-0.32689 -0.35218,0.35218 -0.0253,0.61449 0.11246,0.95878 0.30616,0.76509 0.1937,-0.19371 0.21441,-0.69648 0.046,-1.11727 z m 0.004,-6.15709 c -0.14663,-0.56106 -0.26658,-0.10201 -0.26658,1.02011 0,1.12212 0.11995,1.58117 0.26658,1.02011 0.14662,-0.56106 0.14662,-1.47916 0,-2.04022 z m 38.46907,-2.00378 c -0.18609,-0.46502 -0.32421,-0.32689 -0.35219,0.35218 -0.0253,0.61449 0.11247,0.95878 0.30617,0.76508 0.19369,-0.1937 0.2144,-0.69647 0.046,-1.11726 z m -39.4479,-75.64648 c -0.82627,-3.06851 -3.01697,-6.10965 -4.56139,-6.33212 -1.82203,-0.26246 -4.46393,2.72287 -5.28092,5.96742 -0.43928,1.74454 -0.65641,11.47219 -0.65641,29.40814 v 26.80132 l 1.6443,0.36115 c 1.76947,0.38863 5.93365,3.52682 5.93365,4.47168 0,0.31618 -0.30283,0.38771 -0.67298,0.15895 -0.4203,-0.25976 -0.51461,-0.15968 -0.25118,0.26657 0.23199,0.37537 0.67359,0.52688 0.98133,0.33668 0.30774,-0.19019 1.14214,0.94348 1.85421,2.51926 l 1.29468,2.86507 0.15066,-32.32282 c 0.0948,-20.3457 -0.0667,-33.13005 -0.43595,-34.5013 z m 38.05667,64.83904 c 0.57839,-2.88647 3.77211,-6.58604 6.85368,-7.93923 l 2.85541,-1.25388 -0.0179,-27.39722 c -0.0198,-30.11645 -0.12772,-31.13272 -3.58096,-33.70478 -2.28611,-1.70274 -4.186,-0.67681 -6.01273,3.24687 l -1.42495,3.06069 -0.006,33.11509 c -0.005,29.8369 0.26895,36.18368 1.3332,30.87246 z m -5.5574,-37.46471 c -0.21611,-25.03568 -0.28897,-25.54514 -4.32811,-30.26396 -2.72754,-3.18653 -5.80831,-4.71122 -9.5194,-4.71122 -5.32948,0 -9.15061,2.74201 -11.77876,8.45234 -1.32555,2.88008 -1.34488,3.24247 -1.63289,30.60328 -0.1603,15.22877 -0.25028,27.77357 -0.19995,27.87734 0.0503,0.10376 1.21401,-0.62447 2.58595,-1.6183 5.58102,-4.04286 13.11186,-4.55196 19.51574,-1.3193 1.93876,0.97869 3.90279,2.23614 4.36452,2.79435 0.74594,0.90183 0.85884,0.43616 1.01306,-4.1786 0.0955,-2.85644 0.0864,-15.29261 -0.0202,-27.63593 z m -19.09445,-0.14573 c 0.003,-13.82654 0.10633,-15.45705 1.06689,-16.91377 2.62547,-3.98162 4.94371,-4.27792 7.8967,-1.00933 l 2.10804,2.33336 v 15.44569 15.44569 h -5.53773 -5.53774 z m 3.06759,14.33636 c -0.39466,-0.15967 -1.1816,-0.16939 -1.74876,-0.0216 -0.56716,0.1478 -0.24427,0.27844 0.71755,0.29032 0.96182,0.0119 1.42586,-0.10904 1.03121,-0.26872 z m 5.24627,0 c -0.39466,-0.15967 -1.1816,-0.16939 -1.74875,-0.0216 -0.56717,0.1478 -0.24427,0.27844 0.71755,0.29032 0.96181,0.0119 1.42586,-0.10904 1.0312,-0.26872 z m -7.31648,-5.87601 c -0.13399,-0.88607 -0.24719,-0.29947 -0.25157,1.30355 -0.005,1.60303 0.10524,2.328 0.24361,1.61105 0.13836,-0.71696 0.14194,-2.02853 0.008,-2.9146 z m 0.0159,-15.42771 c -0.10826,-2.66021 -0.19743,-0.63974 -0.19817,4.48995 -5.8e-4,5.1297 0.0878,7.30624 0.19683,4.83677 0.109,-2.46947 0.1096,-6.66649 0.001,-9.32672 z m -25.67863,30.5867 c -0.1478,-0.56717 -0.27844,-0.24426 -0.29032,0.71755 -0.0119,0.96182 0.10905,1.42586 0.26872,1.03121 0.15967,-0.39466 0.1694,-1.1816 0.0216,-1.74876 z m 44.88267,-1.17694 c -0.14662,-0.56106 -0.26658,-0.10201 -0.26658,1.02011 0,1.12212 0.11996,1.58117 0.26658,1.02011 0.14662,-0.56106 0.14662,-1.47916 0,-2.04022 z M 179.45472,358.192 c -0.1478,-0.56716 -0.27844,-0.24426 -0.29032,0.71756 -0.0119,0.96181 0.10905,1.42585 0.26872,1.0312 0.15967,-0.39466 0.1694,-1.1816 0.0216,-1.74876 z m 0.0276,-11.96094 c -0.11382,-2.00379 -0.20696,-0.36433 -0.20696,3.64324 0,4.00757 0.0931,5.64704 0.20696,3.64325 0.11383,-2.00379 0.11383,-5.28271 0,-7.28649 z m 44.8749,5.24627 c -0.12931,-1.04197 -0.2351,-0.18945 -0.2351,1.89449 0,2.08394 0.10579,2.93646 0.2351,1.89449 0.12931,-1.04197 0.12931,-2.74701 0,-3.78898 z m -0.0356,-6.99503 c -0.16171,-0.40076 -0.29402,-0.0729 -0.29402,0.72865 0,0.80151 0.13231,1.1294 0.29402,0.72865 0.16171,-0.40076 0.16171,-1.05655 0,-1.4573 z m 0.0121,-2.29525 c -0.18609,-0.46501 -0.32421,-0.32689 -0.35219,0.35218 -0.0253,0.61449 0.11247,0.95878 0.30617,0.76509 0.19369,-0.19371 0.2144,-0.69648 0.046,-1.11727 z m -44.85544,-6.43314 c -0.12314,-1.37105 -0.22562,-0.3943 -0.22774,2.17054 -0.002,2.56485 0.0986,3.68661 0.22389,2.49282 0.12525,-1.1938 0.12699,-3.29231 0.004,-4.66336 z m 44.84329,2.89919 c -0.16171,-0.40076 -0.29401,-0.0729 -0.29401,0.72865 0,0.80151 0.1323,1.12941 0.29401,0.72865 0.16171,-0.40076 0.16171,-1.05654 0,-1.4573 z m 0.0121,-3.46108 c -0.18609,-0.46502 -0.32421,-0.32689 -0.35218,0.35218 -0.0253,0.61449 0.11246,0.95878 0.30616,0.76508 0.1937,-0.1937 0.21441,-0.69647 0.046,-1.11726 z m -44.86133,-8.78023 c -0.12931,-1.04197 -0.2351,-0.18945 -0.2351,1.89449 0,2.08394 0.10579,2.93646 0.2351,1.89449 0.12931,-1.04197 0.12931,-2.74701 0,-3.78898 z m 44.84919,-1.74876 c -0.16172,-0.40076 -0.29402,-0.0729 -0.29402,0.72865 0,0.80152 0.1323,1.12941 0.29402,0.72865 0.1617,-0.40076 0.1617,-1.05654 0,-1.4573 z m -44.88481,-2.9146 c -0.16171,-0.40075 -0.29402,-0.0729 -0.29402,0.72865 0,0.80152 0.13231,1.12941 0.29402,0.72865 0.16171,-0.40075 0.16171,-1.05654 0,-1.4573 z m 44.88481,-1.74875 c -0.16172,-0.40076 -0.29402,-0.0729 -0.29402,0.72864 0,0.80152 0.1323,1.12941 0.29402,0.72865 0.1617,-0.40075 0.1617,-1.05654 0,-1.45729 z m -44.85859,-4.07364 c -0.13943,-0.7251 -0.2588,-0.26912 -0.26527,1.01331 -0.006,1.28242 0.1076,1.87569 0.2535,1.31836 0.14591,-0.55732 0.1512,-1.60658 0.0118,-2.33167 z m -0.0141,-2.88497 c -0.18608,-0.46501 -0.3242,-0.32689 -0.35218,0.35219 -0.0253,0.61449 0.11246,0.95878 0.30616,0.76508 0.1937,-0.19371 0.21441,-0.69647 0.046,-1.11727 z m 17.08939,-37.57437 c 0,-32.22074 -0.014,-32.38527 -3.04403,-35.61051 -1.65696,-1.76375 -2.57781,-1.66261 -3.64458,0.40028 -0.76231,1.47415 -0.88935,5.87279 -0.88935,30.79313 v 29.07331 l 1.515,1.41318 c 0.83325,0.77725 2.16568,2.69161 2.96096,4.25415 l 1.44595,2.84095 0.82802,-1.59602 c 0.68399,-1.3184 0.82803,-6.80966 0.82803,-31.56847 z m 32.1059,25.78513 1.70343,-1.43335 -10e-4,-28.45496 c -5.9e-4,-25.92269 -0.0916,-28.63652 -1.02011,-30.49518 -1.31536,-2.63306 -2.89314,-2.65056 -4.64463,-0.0515 -2.95792,4.38926 -3.07815,5.77414 -3.07815,35.4542 0,27.30453 0.0142,27.63778 1.27005,29.81988 l 1.27005,2.20677 1.39841,-2.80625 c 0.76913,-1.54343 2.16496,-3.45125 3.10185,-4.23959 z m -22.0618,-2.28912 c 2.05765,-0.5868 4.92732,-0.2502 8.90078,1.04401 1.15759,0.37705 1.16378,0.18254 0.87438,-27.48483 -0.30997,-29.63496 -0.27952,-29.32578 -3.27571,-33.254 -2.87231,-3.76579 -7.37897,-2.02417 -9.5116,3.6758 -1.15182,3.07853 -1.20276,4.36419 -1.20276,30.36092 0,25.63029 0.057,27.12202 1.02011,26.71227 0.56106,-0.2387 1.99872,-0.71308 3.1948,-1.05417 z m 14.2538,-0.49463 c -0.18608,-0.46501 -0.32421,-0.32689 -0.35218,0.35218 -0.0253,0.61449 0.11246,0.95878 0.30616,0.76508 0.1937,-0.1937 0.21441,-0.69647 0.046,-1.11726 z m 12.84433,-2.65156 c -0.13399,-0.88607 -0.2472,-0.29947 -0.25157,1.30356 -0.005,1.60303 0.10524,2.328 0.24361,1.61104 0.13836,-0.71696 0.14194,-2.02852 0.008,-2.9146 z m -48.37305,-3.78158 c -0.12314,-1.37105 -0.22562,-0.39431 -0.22774,2.17054 -0.002,2.56485 0.0986,3.68661 0.22389,2.49281 0.12525,-1.19379 0.12699,-3.2923 0.004,-4.66335 z m 35.52872,3.51854 c -0.18608,-0.46501 -0.32421,-0.32689 -0.35218,0.35218 -0.0253,0.61449 0.11246,0.95878 0.30616,0.76509 0.1937,-0.19371 0.21441,-0.69648 0.046,-1.11727 z m 10.49255,-0.58292 c -0.18608,-0.46501 -0.3242,-0.32689 -0.35218,0.35218 -0.0253,0.61449 0.11246,0.95878 0.30616,0.76509 0.1937,-0.19371 0.21441,-0.69648 0.046,-1.11727 z m 2.34576,-4.11007 c -0.13943,-0.7251 -0.2588,-0.26911 -0.26527,1.01331 -0.006,1.28242 0.1076,1.87569 0.2535,1.31837 0.14591,-0.55733 0.1512,-1.60658 0.0118,-2.33168 z m 0.0185,-11.37373 c -0.11568,-1.84348 -0.21033,-0.33518 -0.21033,3.35179 0,3.68696 0.0947,5.19527 0.21033,3.35179 0.11568,-1.84349 0.11568,-4.8601 0,-6.70358 z m -2.37639,6.70358 c -0.16171,-0.40076 -0.29402,-0.0729 -0.29402,0.72864 0,0.80152 0.13231,1.12941 0.29402,0.72865 0.16171,-0.40075 0.16171,-1.05654 0,-1.45729 z m -10.48041,-0.54649 c -0.18608,-0.46501 -0.32421,-0.32689 -0.35218,0.35218 -0.0253,0.61449 0.11246,0.95878 0.30616,0.76508 0.1937,-0.1937 0.21441,-0.69647 0.046,-1.11726 z m -0.0121,-3.53395 c -0.16172,-0.40076 -0.29402,-0.0729 -0.29402,0.72865 0,0.80151 0.1323,1.1294 0.29402,0.72865 0.1617,-0.40076 0.1617,-1.05654 0,-1.4573 z m -35.53188,-3.49072 c -0.13943,-0.7251 -0.2588,-0.26911 -0.26527,1.01331 -0.006,1.28242 0.10761,1.87569 0.2535,1.31837 0.14591,-0.55733 0.1512,-1.60658 0.0118,-2.33168 z m 35.54402,-1.13621 c -0.18609,-0.46501 -0.32421,-0.32689 -0.35218,0.35219 -0.0253,0.61449 0.11246,0.95878 0.30616,0.76508 0.1937,-0.19371 0.21441,-0.69647 0.046,-1.11727 z m -35.55233,-3.81431 c -0.1478,-0.56717 -0.27845,-0.24426 -0.29033,0.71755 -0.0119,0.96182 0.10905,1.42586 0.26872,1.03121 0.15968,-0.39466 0.1694,-1.1816 0.0216,-1.74876 z m 48.40517,-4.96591 c -0.12272,-1.36258 -0.22313,-0.24774 -0.22313,2.47741 0,2.72515 0.10041,3.83998 0.22313,2.4774 0.12273,-1.36257 0.12273,-3.59224 0,-4.95481 z m -48.41093,0.61935 c -0.18609,-0.46501 -0.32421,-0.32689 -0.35219,0.35218 -0.0253,0.61449 0.11247,0.95878 0.30616,0.76509 0.1937,-0.19371 0.21441,-0.69648 0.046,-1.11727 z m 0.003,-3.82541 c -0.14662,-0.56106 -0.26658,-0.10201 -0.26658,1.02011 0,1.12212 0.11996,1.58117 0.26658,1.02011 0.14663,-0.56106 0.14663,-1.47916 0,-2.04022 z m 48.39189,-3.20606 c -0.13894,-0.72136 -0.25262,-0.13115 -0.25262,1.31157 0,1.44273 0.11368,2.03293 0.25262,1.31157 0.13894,-0.72136 0.13894,-1.90177 0,-2.62314 z m -12.83165,-0.28036 c -0.1478,-0.56717 -0.27845,-0.24426 -0.29033,0.71755 -0.0119,0.96182 0.10905,1.42586 0.26872,1.03121 0.15968,-0.39466 0.1694,-1.1816 0.0216,-1.74876 z m -35.54454,-3.50861 c -0.13356,-0.88167 -0.24284,-0.16031 -0.24284,1.60303 0,1.76333 0.10928,2.48469 0.24284,1.60302 0.13356,-0.88166 0.13356,-2.32439 0,-3.20605 z m 46.01919,0.29146 c -0.16172,-0.40076 -0.29402,-0.0729 -0.29402,0.72865 0,0.80151 0.1323,1.1294 0.29402,0.72865 0.1617,-0.40076 0.1617,-1.05655 0,-1.4573 z m 2.34744,-0.87438 c -0.14663,-0.56106 -0.26658,-0.10201 -0.26658,1.02011 0,1.12212 0.11995,1.58117 0.26658,1.02011 0.14662,-0.56106 0.14662,-1.47916 0,-2.04022 z m 0.002,-4.06935 c -0.1478,-0.56716 -0.27845,-0.24426 -0.29033,0.71756 -0.0119,0.96182 0.10905,1.42586 0.26872,1.0312 0.15968,-0.39465 0.1694,-1.18159 0.0216,-1.74876 z m -48.38808,-0.84904 c -0.18609,-0.46501 -0.32421,-0.32689 -0.35219,0.35219 -0.0253,0.61449 0.11247,0.95878 0.30616,0.76508 0.1937,-0.19371 0.21441,-0.69647 0.046,-1.11727 z m 48.41093,-7.61438 c -0.12272,-1.36258 -0.22313,-0.24774 -0.22313,2.4774 0,2.72515 0.10041,3.83999 0.22313,2.47741 0.12273,-1.36257 0.12273,-3.59224 0,-4.95481 z m -48.40518,4.38299 c -0.14779,-0.56717 -0.27844,-0.24426 -0.29032,0.71755 -0.0119,0.96182 0.10905,1.42586 0.26872,1.0312 0.15968,-0.39465 0.1694,-1.18159 0.0216,-1.74875 z m 46.04489,-0.26612 c -0.18608,-0.46502 -0.32421,-0.32689 -0.35218,0.35218 -0.0253,0.61449 0.11246,0.95878 0.30616,0.76508 0.1937,-0.1937 0.21441,-0.69647 0.046,-1.11726 z m -46.03746,-4.69979 c -0.13894,-0.72137 -0.25262,-0.13116 -0.25262,1.31157 0,1.44272 0.11368,2.03293 0.25262,1.31156 0.13894,-0.72136 0.13894,-1.90177 0,-2.62313 z m 15.46912,-5.90702 c 1.22383,-2.56639 4.41749,-6.18856 5.45645,-6.18856 0.68223,0 0.81398,-3.53818 0.81398,-21.85949 V 188.9885 h -2.34997 c -1.37844,0 -2.4375,0.30124 -2.56169,0.72865 -0.48043,1.65336 -6.28301,38.42239 -6.57949,41.69198 -0.30237,3.33468 -0.2128,3.6777 1.50438,5.76095 1.00425,1.21832 1.8259,2.54884 1.8259,2.95669 0,1.37101 0.9423,0.75753 1.89044,-1.23074 z m 20.82848,-1.08802 c 1.84957,-2.96649 1.89779,-3.20331 1.57252,-7.72368 -0.30236,-4.20221 -2.93065,-21.53622 -5.41361,-35.70383 l -0.94499,-5.392 h -2.5543 -2.55431 v 21.3488 21.34881 l 2.64751,2.33042 c 1.45613,1.28175 3.1665,3.34775 3.80083,4.59113 0.63432,1.24337 1.23993,2.26068 1.34579,2.26068 0.10587,0 1.05112,-1.37715 2.10056,-3.06033 z m -10.64825,-11.65159 c -0.13943,-0.7251 -0.2588,-0.26911 -0.26527,1.01331 -0.006,1.28242 0.10761,1.87569 0.2535,1.31837 0.14591,-0.55733 0.1512,-1.60658 0.0118,-2.33168 z m -0.0262,-8.16767 c -0.16171,-0.40076 -0.29402,-0.0729 -0.29402,0.72865 0,0.80151 0.13231,1.1294 0.29402,0.72865 0.16171,-0.40076 0.16171,-1.05655 0,-1.4573 z m 0,-4.66336 c -0.16171,-0.40076 -0.29402,-0.0729 -0.29402,0.72865 0,0.80151 0.13231,1.12941 0.29402,0.72865 0.16171,-0.40076 0.16171,-1.05654 0,-1.4573 z m 0.0121,-5.20984 c -0.18609,-0.46502 -0.32421,-0.32689 -0.35219,0.35218 -0.0253,0.61449 0.11247,0.95878 0.30617,0.76508 0.19369,-0.1937 0.2144,-0.69647 0.046,-1.11726 z m 0.003,-9.65461 c -0.14662,-0.56106 -0.26658,-0.10201 -0.26658,1.02011 0,1.12212 0.11996,1.58117 0.26658,1.02011 0.14663,-0.56106 0.14663,-1.47916 0,-2.04022 z m -13.99368,-1.42086 c -0.18609,-0.46502 -0.32421,-0.32689 -0.35219,0.35218 -0.0253,0.61449 0.11247,0.95878 0.30616,0.76508 0.1937,-0.1937 0.21441,-0.69647 0.046,-1.11726 z m 13.99006,-2.33168 c -0.18608,-0.46502 -0.3242,-0.32689 -0.35218,0.35218 -0.0253,0.61449 0.11246,0.95878 0.30616,0.76508 0.1937,-0.1937 0.21441,-0.69647 0.046,-1.11726 z m -9.90963,-4.08044 c -0.18608,-0.46501 -0.32421,-0.32689 -0.35218,0.35218 -0.0253,0.61449 0.11246,0.95878 0.30616,0.76508 0.1937,-0.1937 0.21441,-0.69647 0.046,-1.11726 z m 20.40219,0 c -0.18609,-0.46501 -0.32421,-0.32689 -0.35219,0.35218 -0.0253,0.61449 0.11247,0.95878 0.30617,0.76508 0.19369,-0.1937 0.2144,-0.69647 0.046,-1.11726 z m -6.80451,-7.61439 c 0.003,-0.40075 -0.44598,-3.57897 -0.99816,-7.0627 -0.84541,-5.33372 -1.21389,-6.47159 -2.33324,-7.20502 -1.75137,-1.14754 -4.14309,-0.52284 -4.82059,1.25911 -0.28984,0.76235 -0.80969,3.44374 -1.15521,5.95865 -0.34552,2.5149 -0.76001,5.29392 -0.92109,6.17558 l -0.29287,1.60303 h 5.25768 c 3.81442,0 5.25926,-0.20001 5.26348,-0.72865 z m 9.70696,-55.96027 c -0.16171,-0.40076 -0.29402,-0.0729 -0.29402,0.72865 0,0.80151 0.13231,1.1294 0.29402,0.72865 0.16171,-0.40076 0.16171,-1.05655 0,-1.4573 z m -20.62123,-2.03205 c -1.67147,-0.11734 -4.55692,-0.11842 -6.41211,-0.002 -1.85519,0.11603 -0.48762,0.21204 3.03904,0.21335 3.52666,10e-4 5.04455,-0.0936 3.37307,-0.21096 z m 13.97988,0.0466 c -0.39466,-0.15967 -1.1816,-0.16939 -1.74875,-0.0216 -0.56717,0.1478 -0.24427,0.27844 0.71755,0.29032 0.96181,0.0119 1.42586,-0.10905 1.0312,-0.26872 z m 5.52664,-0.0352 c -0.88166,-0.13355 -2.32439,-0.13355 -3.20606,0 -0.88166,0.13357 -0.1603,0.24284 1.60303,0.24284 1.76333,0 2.4847,-0.10927 1.60303,-0.24284 z M 211.2556,112.82281 c -0.40076,-0.16171 -1.05654,-0.16171 -1.4573,0 -0.40076,0.16171 -0.0729,0.29401 0.72865,0.29401 0.80151,0 1.12941,-0.1323 0.72865,-0.29401 z"
       id="path1" /><text
       xml:space="preserve"
       id="text2"
       style="font-size:120px;text-align:start;writing-mode:lr-tb;direction:ltr;white-space:pre;shape-inside:url(#rect2);fill:#5d6c53"
       transform="translate(-58.41812,41.727228)"><tspan
         x="344.23242"
         y="225.53433"
         id="tspan3"><tspan
           style="font-weight:bold;font-family:'Segoe MDL2 Assets';-inkscape-font-specification:'Segoe MDL2 Assets';fill:#ffffff"
           id="tspan1">CSI
</tspan></tspan><tspan
         x="344.23242"
         y="375.53433"
         id="tspan5"><tspan
           style="font-weight:bold;font-family:'Segoe MDL2 Assets';-inkscape-font-specification:'Segoe MDL2 Assets';fill:#ffffff"
           id="tspan4">EBENEZER
</tspan></tspan><tspan
         x="344.23242"
         y="525.53433"
         id="tspan7"><tspan
           style="font-weight:bold;font-family:'Segoe MDL2 Assets';-inkscape-font-specification:'Segoe MDL2 Assets';fill:#ffffff"
           id="tspan6">CHURCH</tspan></tspan></text></g></svg>
