<?xml version="1.0" encoding="UTF-8" standalone="no"?>
<!-- Generator: Adobe Illustrator 17.0.0, SVG Export Plug-In . SVG Version: 6.00 Build 0)  -->

<svg
   version="1.1"
   id="Layer_1"
   x="0px"
   y="0px"
   width="299"
   height="78"
   viewBox="0 0 299 78"
   enable-background="new 0 0 299 78"
   xml:space="preserve"
   xmlns="http://www.w3.org/2000/svg"
   xmlns:svg="http://www.w3.org/2000/svg"><defs
   id="defs1" />

<path
   style="fill:#ffffff;stroke-width:0.065288"
   d="m 7.9602362,79.148057 c -0.1066127,-0.311184 -0.1134076,-1.136665 -0.012133,-1.471734 0.2360303,-0.780745 0.2171411,2.07017 0.012133,1.471734 z m 0.00774,-0.719434 c -0.016397,-0.04959 -0.029842,-0.009 -0.029842,0.09012 0,0.09914 0.013446,0.13969 0.029842,0.09012 0.016397,-0.04959 0.016397,-0.130677 0,-0.180245 z m 5.9657368,-4.998104 c -0.119238,-0.145418 -0.117861,-0.276382 0.0039,-0.399939 0.07507,-0.07599 0.303212,-0.09303 1.005032,-0.07511 l 0.907924,0.0232 V 70.919349 68.85973 l -0.190211,0.141074 c -0.483557,0.358628 -1.145114,0.242262 -1.586289,-0.279018 -0.438474,-0.518073 -0.527673,-1.211054 -0.24194,-1.879599 l 0.125115,-0.292748 -0.132277,-0.184635 c -0.17952,-0.250577 -0.270201,-0.575784 -0.275586,-0.98832 -0.01194,-0.916236 0.590919,-1.605186 1.358176,-1.552098 l 0.322245,0.02231 0.162238,-0.339195 c 0.179094,-0.374431 0.523121,-0.659699 0.890307,-0.738239 0.50627,-0.108288 1.175055,0.349106 1.378442,0.942775 0.104967,0.306361 0.104284,0.945135 -0.0013,1.191857 -0.07694,0.179868 -0.07084,0.204921 0.09674,0.396547 0.376637,0.43071 0.52596,1.319501 0.321799,1.915402 -0.23262,0.678984 -0.812375,1.135186 -1.444162,1.136385 l -0.369495,7.2e-4 v 0.700261 0.700268 l 0.280821,-0.328485 c 0.523409,-0.612242 0.635315,-0.71549 0.753773,-0.69547 0.07647,0.01288 0.124295,0.08366 0.135373,0.200226 0.01397,0.147097 -0.09203,0.303833 -0.576418,0.852189 l -0.593549,0.671952 v 1.252816 1.252816 l 1.448432,-0.0016 1.448438,-0.0016 v -4.231437 c 0,-4.130807 -0.0026,-4.233542 -0.116379,-4.320074 -0.135746,-0.103391 -0.324042,-0.514457 -0.267335,-0.583622 0.04112,-0.05015 0.07616,-0.05999 0.265472,-0.07439 0.116793,-0.0089 0.118242,-0.06007 0.118242,-4.179622 0,-4.146755 -6.56e-4,-4.171407 -0.124289,-4.307803 -0.113269,-0.125005 -0.289549,-0.469928 -0.289549,-0.566536 0,-0.02175 0.09311,-0.0396 0.206915,-0.0396 h 0.206923 v -4.28223 c 0,-3.732619 -0.01135,-4.287534 -0.08834,-4.323568 -0.08537,-0.03999 -0.32483,-0.458762 -0.325276,-0.568913 -1.17e-4,-0.02975 0.09289,-0.05407 0.206693,-0.05407 h 0.206923 v -0.939624 c 0,-0.881033 0.01161,-0.976306 0.186013,-1.527869 l 0.186014,-0.588245 0.165248,0.536493 c 0.150628,0.489013 0.165563,0.624248 0.168711,1.527869 l 0.0033,0.991376 h 0.499299 0.499299 l 0.01797,-3.370666 0.01797,-3.370667 0.141406,-0.381661 c 0.07777,-0.209911 0.242629,-0.487333 0.366353,-0.616481 l 0.224947,-0.23482 0.01791,-3.529258 c 0.01784,-3.507406 0.01876,-3.53149 0.153829,-3.888867 0.155201,-0.410633 0.324778,-0.654244 0.558755,-0.802693 l 0.162579,-0.103152 0.0013,-3.621164 c 0.0013,-3.369123 0.0089,-3.641641 0.110817,-3.915239 0.09527,-0.255825 0.319674,-0.548644 0.475451,-0.6204 0.02729,-0.01256 0.06672,-0.217495 0.0877,-0.455426 0.05778,-0.655548 0.07897,-0.83284 0.393009,-3.291135 0.160315,-1.254959 0.291477,-2.321004 0.291477,-2.368989 0,-0.04799 0.03745,-0.06967 0.0833,-0.04824 0.08788,0.04111 0.129247,-0.178629 0.275868,-1.465551 0.08214,-0.720874 0.116018,-0.816051 0.350697,-0.985121 l 0.176936,-0.12746 V 10.224244 8.2209997 H 24.127143 23.476821 V 7.8244446 7.4278974 h 0.650322 0.650314 V 6.6708455 5.9138024 h 0.325157 0.325164 v 0.7570431 0.7570519 h 0.620755 0.620761 v 0.3965472 0.3965551 h -0.620801 -0.620754 v 1.9931263 1.993134 l 0.204345,0.223933 c 0.199564,0.218703 0.207559,0.249266 0.341646,1.30544 0.118301,0.931857 0.151377,1.078571 0.239047,1.060309 0.07429,-0.01544 0.10176,0.02864 0.10176,0.163423 0,0.101528 0.05135,0.581519 0.114129,1.066628 0.173158,1.338131 0.175552,1.357328 0.361998,2.900731 0.0958,0.793046 0.174188,1.55141 0.174188,1.685261 0,0.197794 0.04945,0.29645 0.2642,0.526975 0.166901,0.179164 0.286533,0.381661 0.32483,0.549835 0.03765,0.165359 0.06073,1.622536 0.06093,3.846066 l 3.54e-4,3.579843 0.198685,0.14297 c 0.286671,0.206272 0.49257,0.572184 0.596939,1.060861 0.0758,0.354922 0.09117,0.989728 0.09117,3.76459 v 3.337644 l 0.229412,0.252769 c 0.126178,0.139018 0.292456,0.422823 0.369501,0.630687 0.139998,0.377678 0.140096,0.38007 0.158559,3.748584 l 0.01849,3.370666 h 0.498827 0.49882 l 0.0033,-0.991367 c 0.0033,-0.908997 0.01745,-1.036313 0.171584,-1.532125 l 0.168133,-0.540749 0.0699,0.216303 c 0.294882,0.912491 0.296305,0.921602 0.296338,1.892621 l 2.6e-5,0.955317 h 0.210903 c 0.191175,0 0.207159,0.0152 0.170843,0.162231 -0.02204,0.08922 -0.116943,0.261104 -0.210903,0.38195 L 30.98485,46.18839 v 4.232438 4.23243 h 0.206922 c 0.131976,0 0.206916,0.03447 0.206916,0.09517 0,0.05231 -0.09311,0.227837 -0.206916,0.389989 l -0.206922,0.294811 v 4.152306 4.152307 h 0.206922 c 0.12768,0 0.206916,0.03503 0.206916,0.09141 0,0.124765 -0.286126,0.629591 -0.356849,0.629591 -0.03594,0 -0.05699,1.56872 -0.05699,4.244485 v 4.244492 l 1.418877,-0.0016 1.418878,-0.0016 V 71.826693 70.708777 L 33.408789,70.03732 c -0.370288,-0.600796 -0.413839,-0.705796 -0.413839,-0.997711 0,-0.293259 -0.0139,-0.326254 -0.137268,-0.326254 -0.486444,0 -1.121785,-0.574839 -1.314102,-1.188969 -0.146115,-0.466617 -0.09516,-1.215294 0.112077,-1.646539 0.153252,-0.31892 0.580799,-0.769483 0.730181,-0.769483 0.04742,0 0.07716,-0.09005 0.07736,-0.234323 6.57e-4,-0.676184 0.439897,-1.404625 0.945591,-1.569223 0.734589,-0.239107 1.540569,0.289492 1.72914,1.134025 0.05653,0.253337 0.09783,0.311712 0.248282,0.351275 0.432361,0.113686 0.857224,0.525655 1.06841,1.035984 0.05667,0.137012 0.116517,0.453267 0.13294,0.702812 0.03765,0.571641 -0.08944,1.007974 -0.421473,1.447266 -0.284159,0.375959 -0.559856,0.560682 -0.940757,0.630351 l -0.27943,0.05111 v 0.351306 c 0,0.315679 -0.03594,0.411176 -0.354717,0.941871 l -0.354718,0.590581 v 1.208799 1.20879 l 0.974055,-0.0016 c 0.535727,-7.2e-4 1.001301,0.01936 1.034594,0.04448 0.0829,0.06247 0.07634,0.349522 -0.01043,0.455306 -0.05464,0.06671 -2.60953,0.08652 -11.139861,0.08652 -9.983826,0 -11.078032,-0.01112 -11.161826,-0.113302 z m 1.548735,-0.01032 c -0.08884,-0.01648 -0.248466,-0.01679 -0.354725,-7.28e-4 -0.106258,0.01608 -0.03358,0.02952 0.161523,0.02992 0.195097,7.2e-4 0.282034,-0.01272 0.193202,-0.0292 z m 1.122218,0.0016 c -0.05693,-0.01816 -0.150019,-0.01816 -0.206923,0 -0.05693,0.01816 -0.01036,0.03296 0.103458,0.03296 0.113808,0 0.160362,-0.01488 0.103465,-0.03296 z m 1.06292,0.0064 c -0.01961,-0.02392 -0.07063,-0.02647 -0.113309,-0.0056 -0.04716,0.02304 -0.03319,0.04007 0.03574,0.04359 0.06231,0.0032 0.09724,-0.01392 0.07759,-0.03784 z m 0.85847,-0.004 c -0.04066,-0.02 -0.10715,-0.02 -0.147801,0 -0.04066,0.02 -0.0074,0.03639 0.0739,0.03639 0.08129,0 0.114542,-0.0164 0.0739,-0.03639 z m 0.323931,0.004 c -0.01968,-0.02392 -0.07063,-0.02647 -0.113315,-0.0056 -0.04716,0.02304 -0.03319,0.04007 0.03574,0.04359 0.0623,0.0032 0.09724,-0.01392 0.0776,-0.03784 z m 1.773596,0 c -0.01968,-0.02392 -0.07064,-0.02647 -0.113316,-0.0056 -0.04716,0.02304 -0.03312,0.04007 0.03574,0.04359 0.0623,0.0032 0.09724,-0.01392 0.0776,-0.03784 z m 8.040293,0 c -0.01961,-0.02392 -0.07063,-0.02647 -0.113316,-0.0056 -0.04716,0.02304 -0.03312,0.04007 0.03574,0.04359 0.06231,0.0032 0.09724,-0.01392 0.0776,-0.03784 z m 0.53208,0 c -0.01961,-0.02392 -0.07064,-0.02647 -0.113316,-0.0056 -0.04716,0.02304 -0.03312,0.04007 0.03574,0.04359 0.0623,0.0032 0.09724,-0.01392 0.0776,-0.03784 z m 4.374868,0 c -0.01961,-0.02392 -0.07064,-0.02647 -0.113316,-0.0056 -0.04716,0.02304 -0.03312,0.04007 0.03574,0.04359 0.0623,0.0032 0.09724,-0.01392 0.0776,-0.03784 z m -11.034548,-2.62378 c 0.0026,-1.16982 0.01692,-2.224283 0.03175,-2.343248 0.133674,-1.076395 0.680623,-1.971945 1.489915,-2.43953 0.365343,-0.211087 0.44136,-0.228164 1.015658,-0.228164 0.582058,0 0.647403,0.0152 1.048209,0.244346 0.452043,0.258392 0.968605,0.833712 1.165506,1.298065 0.2905,0.685119 0.29418,0.721249 0.326843,3.213546 l 0.03116,2.376667 1.300635,0.0024 1.300636,0.0024 0.01522,-4.23587 0.01528,-4.235861 H 25.07407 19.871046 v 4.235861 4.23587 h 1.33019 1.330197 z m 0.763703,-0.216303 c 0.02853,-2.262028 0.0343,-2.35491 0.165517,-2.679844 0.07478,-0.185124 0.256337,-0.471912 0.403456,-0.637295 0.927744,-1.042927 2.274056,-0.703915 2.846118,0.716666 l 0.161654,0.401427 0.01849,2.280162 0.01849,2.280154 h 0.148018 0.148025 l -0.01869,-2.316205 -0.01869,-2.316204 -0.183121,-0.468656 c -0.237742,-0.608443 -0.590453,-1.041328 -1.072733,-1.316558 -0.811883,-0.463337 -1.688901,-0.248706 -2.32257,0.568409 -0.342748,0.441972 -0.502402,0.831496 -0.576273,1.406008 -0.0549,0.426902 -0.09502,4.286126 -0.04558,4.383679 0.0162,0.03192 0.08993,0.05432 0.163884,0.04975 l 0.134481,-0.0082 z m 4.239928,1.821513 c -0.01358,-0.109592 -0.02505,-0.03703 -0.02551,0.161231 -4.72e-4,0.198281 0.01069,0.287947 0.02473,0.199265 0.01404,-0.08867 0.01443,-0.250897 6.56e-4,-0.360496 z m 2.838096,-0.253338 c -0.01312,-0.128884 -0.02381,-0.02343 -0.02381,0.234325 0,0.257752 0.01069,0.3632 0.02381,0.234324 0.01311,-0.128877 0.01311,-0.339772 0,-0.468649 z m -14.42762,0.437101 c -0.01889,-0.05751 -0.03286,-0.04047 -0.03574,0.04359 -0.0026,0.07599 0.01141,0.11859 0.03102,0.09463 0.01968,-0.02392 0.02178,-0.08614 0.0046,-0.138187 z m 3.846179,-1.302304 c -0.01154,-0.247841 -0.02099,-0.04503 -0.02099,0.450627 0,0.495684 0.0094,0.698469 0.02099,0.450627 0.01154,-0.247842 0.01154,-0.653403 0,-0.901254 z m -3.845595,0.686319 c -0.01496,-0.07015 -0.0282,-0.03023 -0.02945,0.08875 -0.0013,0.118966 0.01108,0.176357 0.02722,0.127549 0.0162,-0.0488 0.01718,-0.146146 0.002,-0.216303 z m 11.590203,-1.01079 c -0.01174,-0.228013 -0.02132,-0.04144 -0.02132,0.414576 0,0.456026 0.0096,0.64259 0.02132,0.414569 0.01174,-0.228013 0.01174,-0.601132 0,-0.829145 z m 2.835034,0.650268 c -0.01502,-0.07015 -0.02827,-0.03023 -0.02945,0.08876 -0.0013,0.118965 0.01109,0.176356 0.02722,0.127548 0.0162,-0.0488 0.01718,-0.146145 0.002,-0.216303 z M 15.949148,71.507366 c -0.0164,-0.04959 -0.02985,-0.009 -0.02985,0.09012 0,0.09914 0.01345,0.139699 0.02985,0.09013 0.0164,-0.04959 0.0164,-0.130683 0,-0.180252 z m 14.428853,-0.721001 c -0.01312,-0.128877 -0.02381,-0.02344 -0.02381,0.234324 0,0.25776 0.01069,0.363208 0.02381,0.234324 0.01311,-0.128876 0.01311,-0.339764 0,-0.468648 z m -14.42762,0.07663 c -0.01889,-0.05751 -0.03286,-0.04047 -0.03574,0.04351 -0.0026,0.07599 0.01141,0.118589 0.03102,0.09463 0.01968,-0.024 0.02178,-0.08615 0.0046,-0.138187 z m 3.846684,-4.835201 c -0.0094,-0.882321 -0.01712,-0.160424 -0.01712,1.604225 0,1.764641 0.0077,2.486538 0.01712,1.604218 0.0094,-0.882321 0.0094,-2.326123 0,-3.208443 z m 7.742229,4.110528 c -0.01417,-0.08968 -0.02624,-0.03327 -0.02689,0.125341 -6.56e-4,0.158616 0.01089,0.231997 0.02571,0.163063 0.01482,-0.06895 0.01535,-0.198722 0.0013,-0.288404 z m 2.837756,0 c -0.01417,-0.08968 -0.02624,-0.03327 -0.02689,0.125341 -6.56e-4,0.158616 0.01089,0.231997 0.02571,0.163063 0.01482,-0.06895 0.01535,-0.198722 0.0013,-0.288404 z m -2.836503,-0.974186 c -0.01272,-0.148706 -0.02322,-0.02703 -0.02322,0.270375 0,0.297418 0.01043,0.419079 0.02322,0.270374 0.01272,-0.148706 0.01272,-0.392044 0,-0.540749 z m 2.83872,-0.897822 c -0.01095,-0.329038 -0.02001,-0.07911 -0.02013,0.555354 -5.9e-5,0.634479 0.0089,0.903686 0.01994,0.598245 0.01109,-0.305441 0.01115,-0.824562 1.18e-4,-1.153599 z m 3.428411,0.187811 c -0.01115,-0.0136 -0.117736,0.03112 -0.23687,0.09931 -0.292895,0.167702 -0.29256,0.406402 0.0013,0.886919 l 0.221699,0.362608 0.01712,-0.662065 c 0.0094,-0.364136 0.008,-0.673185 -0.0033,-0.686775 z m 0.78393,0.38742 c 1.77e-4,-0.145489 -0.04572,-0.225437 -0.177106,-0.30828 l -0.177363,-0.111855 2.37e-4,0.632727 2.42e-4,0.632727 0.176851,-0.324447 c 0.09727,-0.178452 0.176968,-0.412848 0.177106,-0.520872 z m -4.212256,-3.498694 c -0.01043,-0.426295 -0.01902,-0.07751 -0.01902,0.775073 0,0.852581 0.0085,1.201359 0.01902,0.775073 0.01043,-0.426294 0.01043,-1.12386 0,-1.550146 z M 18.078694,66.3207 c -0.01889,-0.05751 -0.03286,-0.04039 -0.03574,0.04351 -0.0026,0.07599 0.01141,0.11859 0.03109,0.09463 0.01961,-0.02392 0.02171,-0.08615 0.0046,-0.138186 z m 7.156224,-0.462641 c -0.01961,-0.02392 -0.07063,-0.02647 -0.113316,-0.0056 -0.04716,0.02304 -0.03312,0.04007 0.03574,0.04359 0.06231,0.0032 0.09724,-0.01392 0.0776,-0.03792 z m 5.041199,-6.301224 v -4.181789 h -5.202545 -5.202551 v 4.181789 4.18179 h 5.202551 5.202545 z M 21.8811,60.358998 c 0,-2.334361 0.01777,-2.49512 0.338215,-3.05985 0.465542,-0.820426 1.36511,-0.828361 1.872856,-0.01656 0.353314,0.564929 0.390201,0.862771 0.390201,3.150692 v 2.079608 H 23.181735 21.8811 Z m 0.783339,2.030944 c -0.07316,-0.0172 -0.19288,-0.0172 -0.266043,0 -0.07315,0.0172 -0.01331,0.03128 0.133018,0.03128 0.146326,0 0.206182,-0.01408 0.133025,-0.03128 z m 0.323924,0.0072 c -0.01961,-0.02392 -0.07063,-0.02647 -0.113315,-0.0056 -0.04716,0.02304 -0.03312,0.04007 0.03574,0.04359 0.06231,0.0032 0.09724,-0.01392 0.0776,-0.03784 z m -1.008987,-0.407043 c -0.0164,-0.04959 -0.02984,-0.009 -0.02984,0.09012 0,0.09914 0.01345,0.139698 0.02984,0.09013 0.0164,-0.04959 0.0164,-0.130684 0,-0.180252 z m 2.193711,-1.609753 c 0.01299,-1.403225 -0.0013,-1.787798 -0.07916,-2.116395 -0.225957,-0.954781 -0.8299,-1.406241 -1.330662,-0.99468 -0.268214,0.22043 -0.446279,0.559482 -0.523016,0.99584 -0.05909,0.336084 -0.09391,3.754063 -0.03889,3.821117 0.01358,0.01656 0.459166,0.02527 0.990255,0.01952 l 0.965622,-0.01056 z m -1.759908,0.137387 v -1.321501 h 0.325158 0.325157 v 1.337554 1.337539 l -0.325157,-0.01608 -0.325158,-0.01608 z m 0.575729,-0.03927 c -0.012,-0.209519 -0.0219,-0.05647 -0.02204,0.34006 -1.77e-4,0.396548 0.0096,0.567969 0.02178,0.380934 0.01213,-0.187027 0.01226,-0.511481 2.95e-4,-0.720994 z m -0.477459,0.646485 c -0.0164,-0.04959 -0.02985,-0.009 -0.02985,0.09012 0,0.09914 0.01345,0.13969 0.02985,0.09012 0.0164,-0.04959 0.0164,-0.130676 0,-0.180244 z m 0.002,-0.611483 c -0.01502,-0.07015 -0.02827,-0.03023 -0.02945,0.08875 -0.0013,0.118965 0.01109,0.176356 0.02729,0.127548 0.0162,-0.0488 0.01718,-0.146154 0.002,-0.216303 z m -0.002,-0.614217 c -0.0164,-0.04959 -0.02985,-0.009 -0.02985,0.09012 0,0.09914 0.01345,0.139699 0.02985,0.09013 0.0164,-0.04959 0.0164,-0.130684 0,-0.180252 z m 0.47456,-0.180253 c -0.01489,-0.06943 -0.02702,-0.01264 -0.02702,0.126173 0,0.138795 0.0122,0.195578 0.02702,0.12618 0.01489,-0.06943 0.01489,-0.182955 0,-0.252353 z m -0.473327,-0.247841 c -0.01889,-0.05751 -0.03286,-0.04039 -0.03574,0.04359 -0.0026,0.07599 0.01141,0.11859 0.03102,0.09463 0.01968,-0.02392 0.02178,-0.08615 0.0046,-0.138187 z m 0.491692,-0.05855 c 0,-0.125725 -0.03594,-0.142587 -0.28082,-0.131605 l -0.280815,0.01264 0.251254,0.0276 c 0.16902,0.01856 0.251259,0.06159 0.251259,0.131604 0,0.05719 0.01331,0.104 0.02958,0.104 0.01627,0 0.02958,-0.06487 0.02958,-0.144202 z m 0.294219,2.43337 c -6.56e-4,-0.0099 -0.0074,-0.610155 -0.01476,-1.333852 l -0.01338,-1.315829 0.339934,8e-6 0.339941,8e-6 v 1.333842 1.333852 h -0.325157 c -0.178839,0 -0.325781,-0.0081 -0.326541,-0.01799 z m 0.312886,-2.552769 c -0.04001,-0.01975 -0.119835,-0.02096 -0.177362,-0.0024 -0.05752,0.01832 -0.02479,0.03447 0.07278,0.03592 0.09755,0.0016 0.144614,-0.01352 0.104587,-0.03327 z m -1.197971,-0.583574 c 5.9e-4,-0.34889 0.119251,-0.735871 0.304621,-0.993343 0.298988,-0.415297 0.345365,-0.352106 0.345365,0.470623 v 0.720994 h -0.325157 c -0.315385,0 -0.325151,-0.0056 -0.324829,-0.198274 z m 0.295269,0.09853 c 0,-0.0152 -0.05319,-0.04463 -0.118242,-0.06535 -0.065,-0.02072 -0.118235,-0.0083 -0.118235,0.02768 0,0.03592 0.05319,0.06535 0.118235,0.06535 0.06506,0 0.118242,-0.0124 0.118242,-0.02768 z m 0.25126,-0.02008 c -0.04066,-0.02 -0.107158,-0.02 -0.147803,0 -0.04066,0.02 -0.0074,0.03639 0.0739,0.03639 0.08129,0 0.114542,-0.0164 0.0739,-0.03639 z m 0.310379,-0.601235 c 0,-0.805932 0.03785,-0.866131 0.324528,-0.516473 0.156637,0.191027 0.355348,0.809748 0.355348,1.106447 0,0.11155 -0.0507,0.131099 -0.339941,0.131051 l -0.339935,-5.6e-5 z m 0.368269,0.605419 c -0.01968,-0.02392 -0.07063,-0.02647 -0.113316,-0.0056 -0.04716,0.02304 -0.03319,0.04007 0.03574,0.04359 0.06231,0.0032 0.09724,-0.01392 0.0776,-0.03784 z m -1.657499,-0.153336 c -0.01502,-0.07015 -0.0282,-0.03023 -0.02945,0.08875 -0.0013,0.118958 0.01109,0.176357 0.02722,0.127541 0.0162,-0.0488 0.01718,-0.146146 0.002,-0.216295 z m 3.696154,1.656921 c 0.02125,-2.066339 0.03128,-2.23964 0.147099,-2.548945 0.253588,-0.677207 0.736589,-1.140968 1.192083,-1.144591 0.277272,-0.0024 0.712039,0.309599 0.932984,0.669128 0.352265,0.573232 0.375653,0.767283 0.375653,3.11705 v 2.124425 h -1.335325 -1.335326 z m 0.770766,2.097222 c -0.04066,-0.02 -0.107157,-0.02 -0.147802,0 -0.04066,0.02 -0.0074,0.03639 0.0739,0.03639 0.08129,0 0.114543,-0.0164 0.0739,-0.03639 z m 0.295597,0 c -0.04066,-0.02 -0.10715,-0.02 -0.147795,0 -0.04066,0.02 -0.0074,0.03639 0.0739,0.03639 0.08129,0 0.114543,-0.0164 0.0739,-0.03639 z m 0.264811,0.004 c -0.01961,-0.02399 -0.07064,-0.02655 -0.113316,-0.0056 -0.04716,0.02304 -0.03312,0.04007 0.03574,0.04359 0.0623,0.0032 0.09724,-0.01392 0.0776,-0.03784 z m 0.385511,-0.004 c -0.04066,-0.02 -0.107157,-0.02 -0.147802,0 -0.04066,0.02 -0.0074,0.03639 0.0739,0.03639 0.08129,0 0.114549,-0.0164 0.0739,-0.03639 z m 0.591193,0 c -0.04066,-0.02 -0.10715,-0.02 -0.147795,0 -0.04066,0.02 -0.0074,0.03639 0.0739,0.03639 0.08129,0 0.114542,-0.0164 0.0739,-0.03639 z m 0.03063,-2.048462 c 0.01712,-1.88915 -0.02079,-2.2382 -0.297394,-2.739011 -0.07528,-0.136299 -0.251515,-0.325006 -0.391637,-0.419343 -0.232482,-0.15652 -0.276156,-0.163703 -0.499436,-0.08211 -0.13458,0.04919 -0.328595,0.197905 -0.431154,0.330533 -0.340912,0.440828 -0.376749,0.707419 -0.376703,2.801921 l 5.2e-5,1.879775 0.99021,-0.01024 0.99021,-0.01024 z m -1.761271,1.501386 c -6.56e-4,-0.0099 -0.0074,-0.610154 -0.01476,-1.333851 l -0.01338,-1.31583 0.339941,8e-6 0.339934,8e-6 v 1.333843 1.333851 h -0.325158 c -0.178837,0 -0.32578,-0.0081 -0.326541,-0.018 z m 0.429999,-2.556359 c -0.07315,-0.0172 -0.192873,-0.0172 -0.266036,0 -0.07316,0.0172 -0.01331,0.03128 0.133018,0.03128 0.146319,0 0.206181,-0.01408 0.133018,-0.03128 z m 0.438473,2.526315 c -0.02171,-0.02647 -0.03941,-0.626671 -0.03941,-1.333842 v -1.285779 h 0.354717 0.354718 v 1.333843 1.333851 h -0.315306 c -0.173414,0 -0.333041,-0.0216 -0.354718,-0.04807 z m 0.240176,-2.518988 c -0.01968,-0.02399 -0.07064,-0.02655 -0.113315,-0.0056 -0.04716,0.02304 -0.03312,0.04007 0.03574,0.04359 0.06231,0.0032 0.09724,-0.01392 0.0776,-0.03791 z m 0.327518,-0.004 c -0.04001,-0.01975 -0.119842,-0.02096 -0.177361,-0.0024 -0.05752,0.01832 -0.02479,0.03447 0.07278,0.03592 0.09755,0.0016 0.144608,-0.01352 0.104586,-0.03319 z M 26.268857,58.53277 c 0.07619,-0.51125 0.248846,-0.897838 0.460642,-1.031402 l 0.176778,-0.111487 v 0.7589 0.758899 h -0.346643 -0.346651 z m 0.814783,-0.382142 c 0,-0.416376 0.02302,-0.757052 0.05116,-0.757052 0.1074,0 0.370603,0.313064 0.476954,0.567282 0.061,0.145897 0.129811,0.418607 0.152858,0.606042 l 0.04191,0.34078 H 27.445094 27.08366 Z m 0.31038,0.637206 c -0.04066,-0.02 -0.107157,-0.02 -0.147802,0 -0.04066,0.02 -0.0074,0.03639 0.0739,0.03639 0.08129,0 0.114549,-0.01632 0.0739,-0.03639 z m 0.736471,-0.113638 c -0.01417,-0.08968 -0.02624,-0.03327 -0.02689,0.125333 -6.56e-4,0.158615 0.01089,0.232004 0.02571,0.163062 0.01482,-0.06895 0.01535,-0.198713 0.0013,-0.288395 z M 27.067628,56.70108 c -0.01968,-0.02392 -0.07064,-0.02647 -0.113316,-0.0056 -0.04716,0.02304 -0.03312,0.04007 0.03574,0.04359 0.06231,0.0032 0.09724,-0.01392 0.0776,-0.03791 z m -7.275692,6.730822 c -0.0164,-0.04959 -0.02985,-0.009 -0.02985,0.09013 0,0.09914 0.01345,0.13969 0.02985,0.09012 0.0164,-0.04959 0.0164,-0.130685 0,-0.180253 z m 10.587403,-2.051101 c -0.01063,-0.3887 -0.01942,-0.09026 -0.01948,0.663186 -5.9e-5,0.753437 0.0087,1.07146 0.01935,0.706716 0.01069,-0.364752 0.01075,-0.981202 1.19e-4,-1.369902 z m -10.583271,1.041704 c -0.01246,-0.168534 -0.02263,-0.03064 -0.02263,0.306425 0,0.337069 0.01017,0.474959 0.02263,0.306425 0.01246,-0.168534 0.01246,-0.444316 0,-0.61285 z m -5.32e-4,-1.009397 c -0.01311,-0.128876 -0.02388,-0.02343 -0.02388,0.234324 0,0.25776 0.01075,0.363208 0.02388,0.234324 0.01312,-0.128876 0.01312,-0.339764 0,-0.468648 z m 0.0013,-2.563374 c -0.01063,-0.384534 -0.01922,-0.05023 -0.01922,0.742854 5.3e-5,0.793102 0.0087,1.10771 0.01928,0.69914 0.01056,-0.408577 0.01049,-1.057477 -1.18e-4,-1.441994 z m 10.582006,0.54458 c -0.01194,-0.208184 -0.02171,-0.03784 -0.02171,0.378526 0,0.416376 0.0098,0.58671 0.02171,0.378526 0.01194,-0.208192 0.01194,-0.54886 0,-0.757052 z m -5.39e-4,-1.189649 c -0.01272,-0.148705 -0.02315,-0.02703 -0.02315,0.270374 0,0.297411 0.01043,0.41908 0.02315,0.270375 0.01279,-0.148706 0.01279,-0.392044 0,-0.540749 z M 19.796494,56.906872 c -0.01174,-0.228021 -0.02132,-0.04144 -0.02132,0.414568 0,0.456034 0.0096,0.642598 0.02132,0.414577 0.01174,-0.228013 0.01174,-0.601132 0,-0.829145 z m 10.58274,-0.757051 c -0.01095,-0.32715 -0.01994,-0.05951 -0.01994,0.594828 0,0.654299 0.009,0.92197 0.01994,0.59482 0.01095,-0.327149 0.01095,-0.862499 0,-1.189648 z M 19.795871,55.681173 c -0.01279,-0.148706 -0.02322,-0.02703 -0.02322,0.270374 0,0.29741 0.01043,0.419079 0.02322,0.270375 0.01273,-0.148706 0.01273,-0.392045 0,-0.540749 z m -0.737724,-0.930962 c -0.04066,-0.02 -0.107157,-0.02 -0.147801,0 -0.04066,0.02 -0.0074,0.03639 0.0739,0.03639 0.08129,0 0.11455,-0.0164 0.07391,-0.03639 z m 4.817034,0.004 c -0.01968,-0.02392 -0.07064,-0.02655 -0.113316,-0.0056 -0.04715,0.02304 -0.03312,0.04007 0.03574,0.04359 0.06231,0.0032 0.09724,-0.01392 0.0776,-0.03784 z m 1.952184,-0.0064 c -0.05693,-0.01816 -0.150019,-0.01816 -0.206923,0 -0.05687,0.01816 -0.01036,0.03296 0.103465,0.03296 0.113801,0 0.160362,-0.01488 0.103458,-0.03296 z m 0.29437,0.0064 c -0.01968,-0.02392 -0.07063,-0.02655 -0.113315,-0.0056 -0.04716,0.02304 -0.03312,0.04007 0.03574,0.04359 0.06231,0.0032 0.09724,-0.01392 0.0776,-0.03784 z m 0.650315,0 c -0.01961,-0.02392 -0.07064,-0.02655 -0.113315,-0.0056 -0.04716,0.02304 -0.03312,0.04007 0.03574,0.04359 0.0623,0.0032 0.09724,-0.01392 0.0776,-0.03784 z m 0.236476,0 c -0.01961,-0.02392 -0.07063,-0.02655 -0.113309,-0.0056 -0.04716,0.02304 -0.03312,0.04007 0.03574,0.04359 0.06231,0.0032 0.09724,-0.01392 0.07759,-0.03784 z m 1.06416,0 c -0.01961,-0.02392 -0.07063,-0.02655 -0.113315,-0.0056 -0.04716,0.02304 -0.03312,0.04007 0.03574,0.04359 0.06231,0.0032 0.09724,-0.01392 0.0776,-0.03784 z m 0.295598,0 c -0.01961,-0.02392 -0.07064,-0.02655 -0.11331,-0.0056 -0.04716,0.02304 -0.03312,0.04007 0.03574,0.04359 0.06231,0.0032 0.09724,-0.01392 0.07759,-0.03784 z m 1.154067,-0.004 c -0.04066,-0.02 -0.107151,-0.02 -0.147795,0 -0.04066,0.02 -0.0074,0.03639 0.0739,0.03639 0.08129,0 0.114542,-0.0164 0.0739,-0.03639 z m 1.624567,0.004 c -0.01968,-0.02392 -0.07064,-0.02655 -0.113316,-0.0056 -0.04716,0.02304 -0.03312,0.04007 0.03574,0.04359 0.06231,0.0032 0.09724,-0.01392 0.0776,-0.03784 z M 30.276156,50.39968 v -4.253891 h -5.202544 -5.202551 v 4.253891 4.253891 h 5.202551 5.202544 z m -6.433395,0.913419 0.01889,-2.042678 0.178759,-0.35241 c 0.349845,-0.689702 0.985894,-1.003973 1.452026,-0.717458 0.331938,0.204033 0.637406,0.614786 0.763952,1.027267 0.106619,0.347531 0.117861,0.562722 0.117861,2.256062 v 1.871896 h -1.275193 -1.275188 z m 2.176763,-0.05535 c 0,-1.887854 -0.01823,-2.015083 -0.342663,-2.394089 -0.269481,-0.314783 -0.533411,-0.414304 -0.800996,-0.302033 -0.125017,0.05248 -0.286618,0.163318 -0.359106,0.24637 -0.07249,0.08305 -0.144076,0.136035 -0.159083,0.117734 -0.01502,-0.01832 -0.03037,0.02192 -0.03417,0.08947 -0.0039,0.06751 -0.04821,0.252512 -0.09875,0.411136 -0.07315,0.229612 -0.09241,0.622753 -0.09448,1.928672 l -0.0026,1.640268 h 0.945919 0.945912 z m -1.655354,0.22343 v -1.2257 l 0.31038,6.4e-5 0.31038,5.6e-5 v 1.225675 1.225684 l -0.31038,-4e-5 -0.31038,-3.9e-5 z m 0.397828,1.037936 c -0.01961,-0.02392 -0.07063,-0.02647 -0.113316,-0.0056 -0.04716,0.02303 -0.03312,0.04007 0.03574,0.04359 0.06231,0.0032 0.09724,-0.01392 0.0776,-0.03784 z m 0.429849,-1.037936 v -1.2257 h 0.325157 0.325164 v 1.2257 1.2257 H 25.517004 25.191847 Z M 24.36413,49.838618 c 5.9e-5,-0.271678 0.149449,-0.623104 0.354147,-0.83316 0.106049,-0.108831 0.200856,-0.188066 0.210681,-0.176084 0.0098,0.012 0.02394,0.276797 0.03142,0.588486 l 0.01358,0.566704 -0.304937,0.0093 c -0.280328,0.0086 -0.304936,-0.004 -0.30489,-0.155248 z m 0.827638,-0.430278 c 4.6e-5,-0.327157 0.02309,-0.594827 0.05123,-0.594827 0.09406,0 0.36413,0.298937 0.445433,0.493043 0.04421,0.105544 0.09843,0.294235 0.12051,0.419312 l 0.04014,0.227405 -0.328685,0.02496 -0.328693,0.02496 z m -1.141927,3.285048 c -0.01889,-0.05751 -0.03286,-0.04039 -0.03574,0.04359 -0.0026,0.07599 0.01141,0.118589 0.03102,0.09463 0.01961,-0.02392 0.02171,-0.08614 0.0046,-0.138186 z m -0.0013,-2.600105 c -0.0164,-0.04959 -0.02984,-0.009 -0.02984,0.09013 0,0.09914 0.01345,0.139691 0.02984,0.09012 0.0164,-0.04959 0.0164,-0.130684 0,-0.180253 z m 1.098902,-1.904315 c -0.04066,-0.02 -0.107158,-0.02 -0.147802,0 -0.04066,0.02 -0.0074,0.03639 0.0739,0.03639 0.08129,0 0.114543,-0.0164 0.0739,-0.03639 z m -5.350386,0.06063 c -0.0091,-1.13725 -0.0166,-0.185916 -0.0166,2.114067 7e-6,2.299983 0.0075,3.230464 0.0166,2.067723 0.0091,-1.162734 0.0091,-3.044541 -1.3e-5,-4.18179 z m 10.582379,3.217953 c -0.01,-0.567481 -0.01823,-0.123324 -0.01823,0.987009 -2.7e-5,1.110341 0.0081,1.574646 0.01817,1.031786 0.01003,-0.542854 0.01003,-1.451314 5.3e-5,-2.018795 z m -0.0026,-1.445522 c -0.01417,-0.08968 -0.02624,-0.03327 -0.02689,0.125341 -6.56e-4,0.158615 0.01089,0.231996 0.02571,0.163063 0.01482,-0.06895 0.01535,-0.198713 0.0013,-0.288404 z m -1.18e-4,-0.649732 c -0.0141,-0.08923 -0.02565,-0.01624 -0.02565,0.162224 0,0.178444 0.01154,0.251449 0.02565,0.162222 0.0141,-0.08923 0.0141,-0.235227 0,-0.324446 z m 0.002,-2.022338 c -0.01095,-0.325205 -0.01981,-0.03975 -0.01974,0.634415 6e-5,0.674129 0.009,0.940208 0.01987,0.591278 0.01089,-0.348923 0.01083,-0.900486 -1.18e-4,-1.225693 z m -0.002,-1.005021 c -0.01417,-0.08968 -0.02624,-0.03327 -0.02689,0.12534 -6.56e-4,0.158616 0.01089,0.231997 0.02571,0.163064 0.01482,-0.06895 0.01535,-0.198714 0.0013,-0.288404 z M 21.7773,45.521253 c -0.04066,-0.02 -0.107157,-0.02 -0.147801,0 -0.04066,0.02 -0.0074,0.03639 0.0739,0.03639 0.08129,0 0.11455,-0.0164 0.0739,-0.03639 z m 0.383045,0.004 c -0.01961,-0.02392 -0.07063,-0.02648 -0.113315,-0.0056 -0.04716,0.02304 -0.03312,0.04007 0.03574,0.04359 0.06231,0.0032 0.09724,-0.01392 0.0776,-0.03784 z m 1.950951,0 c -0.01968,-0.02392 -0.07063,-0.02648 -0.113309,-0.0056 -0.04716,0.02304 -0.03312,0.04007 0.03574,0.04359 0.06231,0.0032 0.09724,-0.01392 0.07759,-0.03784 z m 1.300636,0 c -0.01961,-0.02392 -0.07063,-0.02648 -0.113309,-0.0056 -0.04716,0.02304 -0.03312,0.04007 0.03575,0.04359 0.0623,0.0032 0.09724,-0.01392 0.07759,-0.03784 z m 3.224388,-0.004 c -0.04001,-0.01976 -0.119834,-0.02096 -0.177355,-0.0024 -0.05752,0.01824 -0.02479,0.03439 0.07278,0.03591 0.09754,0.0016 0.144608,-0.01352 0.104579,-0.03327 z m 1.240394,-4.32e-4 c -0.04066,-0.02 -0.107157,-0.02 -0.147801,0 -0.04066,0.02 -0.0074,0.03639 0.0739,0.03639 0.08129,0 0.114542,-0.0164 0.0739,-0.03639 z m -7.002899,-3.250837 c -0.01712,-3.043205 -0.02217,-3.165937 -0.143598,-3.482649 -0.15358,-0.400635 -0.437364,-0.759076 -0.637997,-0.805852 -0.08688,-0.02024 -0.225209,0.02175 -0.331618,0.100648 -0.349215,0.258992 -0.352803,0.29957 -0.352803,3.987259 v 3.354965 h 0.741882 0.741882 z m 3.912861,0.504698 c -0.0013,-2.879445 -0.0404,-3.363507 -0.320192,-3.945762 -0.318271,-0.662338 -0.983408,-1.101743 -1.534378,-1.013652 -0.627522,0.10032 -1.15128,0.621393 -1.410003,1.402777 -0.129306,0.3905 -0.133733,0.487181 -0.15137,3.304292 l -0.01817,2.902018 h 1.71757 1.717571 z m -2.422887,-0.382101 c 0,-2.1125 0.0059,-2.15742 0.334661,-2.529843 0.09232,-0.104592 0.226389,-0.211712 0.297926,-0.238036 0.186872,-0.06879 0.443956,0.118694 0.628074,0.458002 l 0.158217,0.291571 v 1.984287 1.984296 h -0.709436 -0.709442 z m 0.399062,1.828471 c -0.05693,-0.01816 -0.150019,-0.01816 -0.206923,0 -0.05693,0.01816 -0.01036,0.03296 0.103459,0.03296 0.113807,0 0.160368,-0.01488 0.103464,-0.03296 z m 0.620755,-7.89e-4 c -0.07315,-0.0172 -0.192874,-0.0172 -0.266037,0 -0.07316,0.0172 -0.01331,0.03127 0.133018,0.03127 0.14632,0 0.206181,-0.01408 0.133019,-0.03127 z m 1.80124,0.718801 c -0.01358,-0.109599 -0.02505,-0.03703 -0.02551,0.161232 -4.73e-4,0.198273 0.01069,0.287947 0.02473,0.199265 0.01404,-0.08867 0.01443,-0.250898 6.56e-4,-0.360497 z m 1.552512,-2.848949 c -0.0013,-3.146972 -0.0077,-3.351997 -0.116254,-3.643496 -0.220715,-0.593077 -0.680721,-0.623384 -1.011414,-0.06663 -0.335022,0.564025 -0.349032,0.725721 -0.349032,4.029653 v 3.015113 h 0.739003 0.738996 z m 1.641377,1.910651 c -0.01141,-0.267671 -0.02066,-0.04863 -0.02066,0.486669 0,0.535342 0.0093,0.754348 0.02066,0.486678 0.01135,-0.267671 0.01135,-0.705676 0,-0.973347 z m -10.582451,-0.07207 c -0.01135,-0.267671 -0.02066,-0.04863 -0.02066,0.486669 0,0.535342 0.0093,0.754348 0.02066,0.486677 0.01135,-0.267671 0.01135,-0.705675 0,-0.973346 z m 3.487073,0.614137 c -0.01319,-0.129587 -0.0242,-0.04095 -0.02453,0.196986 -3.54e-4,0.237932 0.01043,0.343955 0.02394,0.235612 0.01351,-0.108335 0.01377,-0.303009 6.03e-4,-0.432598 z m 3.90301,-1.767736 c -0.01109,-0.307329 -0.02013,-0.05591 -0.02013,0.558778 0,0.61465 0.009,0.866099 0.02013,0.55877 0.01109,-0.307328 0.01109,-0.810219 0,-1.117548 z M 23.281265,43.5682 c -0.01489,-0.06943 -0.02702,-0.01264 -0.02702,0.126172 0,0.138794 0.0122,0.19557 0.02702,0.126172 0.01489,-0.06943 0.01489,-0.182956 0,-0.252344 z m 0.0013,-0.53991 c -0.01416,-0.08969 -0.02624,-0.03327 -0.02689,0.125333 -6.56e-4,0.158616 0.01089,0.231997 0.02571,0.163063 0.01482,-0.06895 0.01535,-0.198714 0.0013,-0.288396 z m -0.0026,-0.721841 c -0.0164,-0.04959 -0.02985,-0.009 -0.02985,0.09012 0,0.09914 0.01345,0.139698 0.02985,0.09013 0.0164,-0.04959 0.0164,-0.130684 0,-0.180252 z m 3.903726,-0.39518 c -0.01502,-0.07015 -0.02827,-0.03023 -0.02945,0.08875 -0.0013,0.118966 0.01109,0.176357 0.02729,0.127548 0.0162,-0.0488 0.01718,-0.146153 0.002,-0.216303 z m 6.55e-4,-0.541276 c -0.01417,-0.08969 -0.02624,-0.03327 -0.02689,0.125333 -6.56e-4,0.158616 0.01089,0.231996 0.02571,0.163063 0.01482,-0.06895 0.01535,-0.198714 0.0013,-0.288396 z m -3.901908,-0.144202 c -0.01417,-0.08968 -0.02624,-0.03327 -0.02689,0.125333 -6.55e-4,0.158624 0.01089,0.232005 0.02571,0.163071 0.01482,-0.06895 0.01535,-0.198714 0.0013,-0.288404 z m 3.900846,-0.397386 c -0.01489,-0.06943 -0.02702,-0.01264 -0.02702,0.126172 0,0.138794 0.0122,0.19557 0.02702,0.126173 0.01489,-0.06943 0.01489,-0.182948 0,-0.252345 z m -3.902276,0.04055 c -0.01889,-0.05751 -0.03286,-0.04039 -0.03574,0.04359 -0.0026,0.07599 0.01141,0.118589 0.03102,0.09463 0.01968,-0.024 0.02178,-0.08615 0.0046,-0.138195 z m 3.54e-4,-0.761555 c -0.01489,-0.06943 -0.02702,-0.01264 -0.02702,0.126172 0,0.138795 0.0122,0.19557 0.02702,0.126181 0.01489,-0.06943 0.01489,-0.182956 0,-0.252353 z m 3.901541,-0.247842 c -0.01889,-0.05751 -0.03286,-0.04047 -0.03574,0.04359 -0.0026,0.07599 0.01141,0.11859 0.03102,0.09463 0.01968,-0.024 0.02178,-0.08615 0.0046,-0.138194 z m -4.000824,-9.356623 c -0.0838,-0.379542 -0.30598,-0.755692 -0.462616,-0.783208 -0.184793,-0.03247 -0.452732,0.336788 -0.535589,0.738095 -0.04453,0.215775 -0.06658,1.418966 -0.06658,3.637418 v 3.314987 l 0.166769,0.04463 c 0.179455,0.04807 0.601794,0.436221 0.601794,0.553091 0,0.03912 -0.0307,0.04799 -0.06826,0.01968 -0.04263,-0.03215 -0.05221,-0.01976 -0.02545,0.03296 0.02354,0.0464 0.06831,0.06519 0.09953,0.04167 0.03122,-0.02351 0.115835,0.116694 0.188054,0.3116 l 0.131306,0.35437 0.01528,-3.997922 c 0.0096,-2.51651 -0.0068,-4.097771 -0.04421,-4.267377 z m 3.859716,8.019777 c 0.05863,-0.357025 0.382566,-0.814611 0.695104,-0.981986 l 0.289596,-0.155088 -0.002,-3.388696 c -0.002,-3.725027 -0.01292,-3.850728 -0.363178,-4.168855 -0.231859,-0.210608 -0.424549,-0.08372 -0.609815,0.401594 l -0.144516,0.378566 -5.96e-4,4.095923 c -5.31e-4,3.69045 0.02728,4.475473 0.135215,3.818542 z M 26.478161,33.888791 C 26.456261,30.792195 26.448841,30.72918 26.039209,30.145518 25.76258,29.751387 25.450127,29.5628 25.073745,29.5628 c -0.540514,0 -0.928059,0.339155 -1.1946,1.045447 -0.134442,0.356233 -0.136403,0.401058 -0.165609,3.785242 -0.01627,1.883615 -0.02538,3.435249 -0.02027,3.448079 0.0052,0.0128 0.123121,-0.07727 0.262265,-0.200161 0.566028,-0.500052 1.32981,-0.563018 1.979292,-0.163183 0.196632,0.121053 0.395821,0.276582 0.442651,0.345627 0.07566,0.111542 0.0871,0.05399 0.102743,-0.516841 0.0097,-0.353305 0.0088,-1.891501 -0.002,-3.418219 z M 24.5416,33.870801 c 3.54e-4,-1.710169 0.01075,-1.911842 0.108206,-2.092023 0.266273,-0.492476 0.501392,-0.529126 0.800884,-0.124836 l 0.213797,0.288603 v 1.910435 1.910442 h -0.56164 -0.561635 z m 0.311115,1.773224 c -0.04001,-0.01975 -0.119835,-0.02096 -0.177356,-0.0024 -0.05752,0.01824 -0.02479,0.03439 0.07277,0.03592 0.09755,0.0016 0.144614,-0.01352 0.104587,-0.03327 z m 0.53208,0 c -0.04001,-0.01975 -0.119842,-0.02096 -0.177363,-0.0024 -0.05752,0.01824 -0.02479,0.03439 0.07278,0.03592 0.09755,0.0016 0.144614,-0.01352 0.104585,-0.03327 z m -0.742039,-0.726784 c -0.01358,-0.1096 -0.02505,-0.03703 -0.02551,0.161231 -4.72e-4,0.198274 0.01069,0.287947 0.02473,0.199265 0.01404,-0.08867 0.01443,-0.250906 6.56e-4,-0.360496 z m 0.0013,-1.908219 c -0.01095,-0.32903 -0.02001,-0.07911 -0.02007,0.555354 -5.9e-5,0.634479 0.0089,0.903694 0.01994,0.598245 0.01109,-0.305441 0.01115,-0.824562 1.18e-4,-1.153599 z m -2.604256,3.78319 c -0.01502,-0.07015 -0.0282,-0.03023 -0.02945,0.08875 -0.0013,0.118966 0.01108,0.176357 0.02729,0.12754 0.0162,-0.0488 0.01718,-0.146145 0.002,-0.216294 z m 4.552013,-0.14557 c -0.01489,-0.06943 -0.02702,-0.01264 -0.02702,0.126172 0,0.138795 0.0122,0.195571 0.02702,0.126173 0.01489,-0.06943 0.01489,-0.182956 0,-0.252345 z m -4.552044,-0.287028 c -0.01502,-0.07015 -0.0282,-0.03023 -0.02945,0.08875 -0.0013,0.118959 0.01108,0.176358 0.02729,0.127541 0.0162,-0.0488 0.01718,-0.146146 0.002,-0.216295 z m 0.0026,-1.47942 c -0.01154,-0.247843 -0.02099,-0.04503 -0.02099,0.450626 0,0.495684 0.0094,0.698461 0.02099,0.450619 0.01154,-0.247842 0.01154,-0.653404 0,-0.901245 z m 4.55122,0.648899 c -0.01311,-0.128884 -0.02388,-0.02343 -0.02388,0.234324 0,0.257753 0.01075,0.363201 0.02388,0.234324 0.01311,-0.128876 0.01311,-0.339771 0,-0.468648 z m -0.0039,-0.865202 c -0.0164,-0.04959 -0.02985,-0.009 -0.02985,0.09013 0,0.09914 0.01345,0.13969 0.02985,0.09012 0.0164,-0.04959 0.0164,-0.130684 0,-0.180252 z m 0.0013,-0.283893 c -0.01889,-0.05751 -0.03286,-0.0404 -0.03574,0.04359 -0.0026,0.07599 0.01141,0.118591 0.03102,0.09463 0.01968,-0.02392 0.02178,-0.08615 0.0046,-0.138195 z m -4.549252,-0.795694 c -0.01246,-0.169582 -0.02289,-0.0488 -0.02309,0.268463 -2.36e-4,0.317239 0.01004,0.455994 0.02269,0.308337 0.01272,-0.147657 0.01285,-0.407218 4.13e-4,-0.5768 z m 4.548019,0.358593 c -0.0164,-0.04959 -0.02984,-0.009 -0.02984,0.09012 0,0.09914 0.01345,0.139691 0.02984,0.09012 0.0164,-0.04959 0.0164,-0.130677 0,-0.180245 z m 0.0013,-0.428095 c -0.01889,-0.05751 -0.03286,-0.04047 -0.03568,0.04359 -0.0026,0.07599 0.01141,0.11859 0.03102,0.09463 0.01968,-0.02399 0.02178,-0.08615 0.0046,-0.138195 z m -4.549843,-1.086001 c -0.01311,-0.128884 -0.02388,-0.02343 -0.02388,0.234324 0,0.257753 0.01069,0.363201 0.02388,0.234325 0.01311,-0.128885 0.01311,-0.339772 0,-0.468649 z m 4.548616,-0.216302 c -0.0164,-0.04959 -0.02984,-0.009 -0.02984,0.09012 0,0.09914 0.01345,0.139699 0.02984,0.09013 0.0164,-0.04959 0.0164,-0.130684 0,-0.180252 z m -4.55223,-0.360497 c -0.0164,-0.04959 -0.02984,-0.009 -0.02984,0.09012 0,0.09914 0.01345,0.139691 0.02984,0.09012 0.0164,-0.04959 0.0164,-0.130675 0,-0.180244 z m 4.55223,-0.216303 c -0.0164,-0.04959 -0.02984,-0.009 -0.02984,0.09012 0,0.09914 0.01345,0.139699 0.02984,0.09013 0.0164,-0.04959 0.0164,-0.130683 0,-0.180252 z m -4.549567,-0.503858 c -0.01416,-0.08968 -0.02624,-0.03327 -0.02689,0.125333 -6.55e-4,0.158623 0.01089,0.232004 0.02571,0.16307 0.01482,-0.06894 0.01535,-0.198713 0.0013,-0.288403 z m -0.0013,-0.356834 c -0.01889,-0.05751 -0.03286,-0.04047 -0.03574,0.04359 -0.0026,0.07599 0.01141,0.11859 0.03102,0.09463 0.01968,-0.02399 0.02178,-0.08615 0.0046,-0.138195 z m 1.733207,-4.647477 c 0,-3.985301 -0.0013,-4.00565 -0.308728,-4.404572 -0.168049,-0.218159 -0.261439,-0.205649 -0.369632,0.04951 -0.07731,0.182332 -0.0902,0.726385 -0.0902,3.808719 v 3.596008 l 0.153653,0.174789 c 0.0845,0.09614 0.21964,0.332917 0.300299,0.526183 l 0.146648,0.351395 0.08398,-0.19741 c 0.06937,-0.163071 0.08398,-0.842271 0.08398,-3.904624 z m 3.256184,3.189294 0.172765,-0.177285 -1.18e-4,-3.519525 c -5.9e-5,-3.206307 -0.0093,-3.541975 -0.103458,-3.771867 -0.133405,-0.325678 -0.293426,-0.327839 -0.471064,-0.0064 -0.299991,0.542901 -0.312184,0.714194 -0.312184,4.385239 0,3.377233 0.0013,3.418451 0.128808,3.688345 l 0.128808,0.27295 0.141826,-0.347098 c 0.07801,-0.190899 0.219574,-0.42687 0.314591,-0.524384 z m -2.237509,-0.283133 c 0.208686,-0.07255 0.499732,-0.03095 0.902715,0.129132 0.117409,0.04663 0.118032,0.02256 0.08868,-3.399527 -0.03142,-3.665476 -0.02834,-3.627234 -0.332221,-4.113103 -0.291314,-0.465785 -0.748374,-0.25037 -0.964669,0.454649 -0.116819,0.380774 -0.12198,0.539798 -0.12198,3.755264 0,3.170145 0.0059,3.354653 0.103457,3.303973 0.05693,-0.02951 0.202712,-0.08819 0.324017,-0.130388 z m 1.445624,-0.06119 c -0.01889,-0.05751 -0.03286,-0.04039 -0.03574,0.04359 -0.0026,0.07599 0.01141,0.118589 0.03102,0.09463 0.01961,-0.02392 0.02178,-0.08615 0.0046,-0.138195 z m 1.302675,-0.327958 c -0.01357,-0.109599 -0.02505,-0.03703 -0.02551,0.161231 -4.72e-4,0.198274 0.01069,0.287941 0.02473,0.199266 0.01404,-0.08868 0.01436,-0.250906 6.55e-4,-0.360497 z m -4.906009,-0.467736 c -0.01246,-0.169582 -0.02289,-0.0488 -0.02309,0.268471 -2.36e-4,0.317239 0.01,0.455986 0.02269,0.308328 0.01272,-0.147657 0.01285,-0.407217 4.13e-4,-0.576799 z m 3.603334,0.435197 c -0.01889,-0.05751 -0.03286,-0.04047 -0.03574,0.04359 -0.0026,0.07599 0.01141,0.11859 0.03102,0.09463 0.01961,-0.02399 0.02178,-0.08615 0.0046,-0.138195 z m 1.064153,-0.07207 c -0.01889,-0.05751 -0.03286,-0.04039 -0.03574,0.04359 -0.0026,0.07599 0.01141,0.11859 0.03109,0.09463 0.01961,-0.024 0.02171,-0.08615 0.0046,-0.138194 z m 0.237913,-0.508361 c -0.01416,-0.08968 -0.02624,-0.03327 -0.02689,0.125332 -6.55e-4,0.158624 0.01089,0.231996 0.02571,0.163063 0.01482,-0.06895 0.01535,-0.198714 0.0013,-0.288395 z m 0.002,-1.406785 c -0.01174,-0.228021 -0.02132,-0.04144 -0.02132,0.414568 0,0.456034 0.0096,0.64259 0.02132,0.414577 0.01174,-0.228013 0.01174,-0.601132 0,-0.829145 z m -0.241015,0.829145 c -0.0164,-0.04959 -0.02985,-0.009 -0.02985,0.09012 0,0.09914 0.01345,0.139698 0.02985,0.09013 0.0164,-0.04959 0.0164,-0.130684 0,-0.180252 z m -1.06292,-0.06759 c -0.01889,-0.05751 -0.03286,-0.0404 -0.03574,0.04359 -0.0026,0.07599 0.01141,0.118589 0.03102,0.09463 0.01961,-0.02392 0.02178,-0.08615 0.0046,-0.138195 z m -0.0013,-0.4371 c -0.0164,-0.04959 -0.02984,-0.009 -0.02984,0.09012 0,0.09914 0.01345,0.139698 0.02984,0.09013 0.0164,-0.04959 0.0164,-0.130684 0,-0.180252 z m -3.603648,-0.431759 c -0.01417,-0.08969 -0.02624,-0.03327 -0.02689,0.125334 -6.56e-4,0.158615 0.01089,0.231996 0.02571,0.163062 0.01482,-0.06895 0.01535,-0.198713 0.0013,-0.288396 z m 3.604882,-0.140538 c -0.01889,-0.05751 -0.03286,-0.0404 -0.03574,0.04359 -0.0026,0.07599 0.01141,0.118591 0.03102,0.09463 0.01968,-0.02392 0.02178,-0.08615 0.0046,-0.138195 z M 22.630736,25.90516 c -0.01502,-0.07015 -0.0282,-0.03023 -0.02945,0.08875 -0.0013,0.118966 0.01108,0.176366 0.02722,0.127549 0.0162,-0.0488 0.01718,-0.146146 0.002,-0.216303 z m 4.909263,-0.614218 c -0.01246,-0.168534 -0.02263,-0.03064 -0.02263,0.306425 0,0.337069 0.01017,0.474959 0.02263,0.306425 0.01246,-0.168534 0.01246,-0.444316 0,-0.61285 z m -4.909847,0.07663 c -0.01889,-0.05751 -0.03286,-0.04047 -0.03574,0.04359 -0.0026,0.07599 0.01141,0.11859 0.03102,0.09463 0.01968,-0.02392 0.02178,-0.08615 0.0046,-0.138195 z m 3.55e-4,-0.473151 c -0.01489,-0.06943 -0.02702,-0.01264 -0.02702,0.126173 0,0.138794 0.0122,0.195569 0.02702,0.126173 0.01489,-0.06943 0.01489,-0.182948 0,-0.252346 z m 4.907918,-0.396547 c -0.0141,-0.08923 -0.02565,-0.01624 -0.02565,0.162223 0,0.178444 0.01154,0.251449 0.02565,0.162223 0.0141,-0.08923 0.0141,-0.235228 0,-0.324446 z m -1.30139,-0.03472 c -0.01496,-0.07015 -0.02827,-0.03023 -0.02945,0.08875 -0.0013,0.118967 0.01109,0.176358 0.02722,0.127549 0.0162,-0.0488 0.01718,-0.146153 0.002,-0.216302 z M 22.6321,24.029181 c -0.01351,-0.109047 -0.02466,-0.01983 -0.02466,0.198281 0,0.218095 0.01109,0.307321 0.02466,0.198274 0.01351,-0.109055 0.01351,-0.2875 0,-0.396555 z m 4.667278,0.03608 c -0.0164,-0.04959 -0.02985,-0.009 -0.02985,0.09013 0,0.09914 0.01345,0.13969 0.02985,0.09012 0.0164,-0.04959 0.0164,-0.130685 0,-0.180253 z m 0.238077,-0.108143 c -0.01489,-0.06943 -0.02702,-0.01264 -0.02702,0.126173 0,0.138794 0.0122,0.19557 0.02702,0.126172 0.01489,-0.06943 0.01489,-0.182956 0,-0.252345 z m 2.36e-4,-0.503331 c -0.01502,-0.07015 -0.02827,-0.03023 -0.02945,0.08875 -0.0013,0.118965 0.01109,0.176356 0.02729,0.127548 0.0162,-0.0488 0.01718,-0.146154 0.002,-0.216303 z m -4.907532,-0.105016 c -0.01889,-0.05751 -0.03286,-0.0404 -0.03574,0.04359 -0.0026,0.07599 0.01141,0.118591 0.03102,0.09463 0.01961,-0.02399 0.02171,-0.08615 0.0046,-0.138195 z m 4.909853,-0.941807 c -0.01246,-0.168527 -0.02263,-0.03064 -0.02263,0.306425 0,0.337068 0.01017,0.474959 0.02263,0.306425 0.01246,-0.168534 0.01246,-0.444316 0,-0.61285 z m -4.909269,0.542124 c -0.01502,-0.07015 -0.0282,-0.03023 -0.02945,0.08875 -0.0013,0.118965 0.01108,0.176357 0.02729,0.127548 0.0162,-0.0488 0.01718,-0.146153 0.002,-0.216303 z m 4.669887,-0.03288 c -0.01889,-0.05751 -0.03286,-0.04047 -0.03574,0.04359 -0.0026,0.07599 0.01141,0.11859 0.03102,0.09463 0.01961,-0.02392 0.02171,-0.08614 0.0046,-0.138187 z m -4.669133,-0.581302 c -0.0141,-0.08923 -0.02565,-0.01623 -0.02565,0.162223 0,0.178444 0.01154,0.251449 0.02565,0.162223 0.0141,-0.08923 0.0141,-0.235228 0,-0.324446 z m 1.568883,-0.730624 c 0.124118,-0.317431 0.448023,-0.765451 0.553396,-0.765451 0.06919,0 0.08256,-0.437629 0.08256,-2.703744 v -2.703745 h -0.238339 c -0.1398,0 -0.247213,0.03728 -0.259806,0.09012 -0.04873,0.204505 -0.637223,4.752374 -0.667295,5.156776 -0.03063,0.412464 -0.02158,0.45489 0.152576,0.712563 0.101852,0.150689 0.185187,0.315255 0.185187,0.365704 0,0.169574 0.09557,0.0937 0.191726,-0.152225 z M 26.312808,21.4697 c 0.187587,-0.36692 0.192473,-0.396211 0.15949,-0.955318 -0.0307,-0.51976 -0.297231,-2.663767 -0.549054,-4.416122 l -0.09581,-0.666915 h -0.259057 -0.259059 v 2.640579 2.640578 l 0.268509,0.288244 c 0.147678,0.158536 0.321144,0.41408 0.385479,0.567865 0.06434,0.153792 0.125757,0.279621 0.136494,0.279621 0.01075,0 0.1066,-0.170334 0.213036,-0.378526 z m -1.079947,-1.441155 c -0.01416,-0.08968 -0.02624,-0.03327 -0.02689,0.125332 -6.55e-4,0.158625 0.01089,0.232005 0.02571,0.163072 0.01482,-0.06895 0.01535,-0.198714 0.0013,-0.288404 z m -0.0026,-1.010237 c -0.0164,-0.04959 -0.02985,-0.009 -0.02985,0.09012 0,0.09914 0.01345,0.139699 0.02985,0.09013 0.0164,-0.04959 0.0164,-0.130685 0,-0.180253 z m 0,-0.576799 c -0.0164,-0.04959 -0.02985,-0.009 -0.02985,0.09012 0,0.09914 0.01345,0.139698 0.02985,0.09013 0.0164,-0.04959 0.0164,-0.130684 0,-0.180252 z m 0.0013,-0.644389 c -0.01889,-0.05751 -0.03286,-0.0404 -0.03574,0.04359 -0.0026,0.07599 0.01141,0.11859 0.03102,0.09463 0.01961,-0.024 0.02178,-0.08615 0.0046,-0.138186 z m 3.54e-4,-1.194161 c -0.01489,-0.06935 -0.02702,-0.01264 -0.02702,0.12618 0,0.138787 0.0122,0.19557 0.02702,0.126173 0.01489,-0.06943 0.01489,-0.182956 0,-0.252353 z M 23.81267,16.427218 c -0.01889,-0.05751 -0.03286,-0.04047 -0.03574,0.04359 -0.0026,0.07599 0.01141,0.118589 0.03102,0.09463 0.01961,-0.024 0.02171,-0.08615 0.0046,-0.138195 z m 1.418878,-0.288396 c -0.01889,-0.05751 -0.03286,-0.0404 -0.03574,0.04359 -0.0026,0.07599 0.01141,0.118589 0.03102,0.09463 0.01968,-0.02399 0.02178,-0.08614 0.0046,-0.138186 z m -1.00504,-0.504698 c -0.01889,-0.05751 -0.03286,-0.04039 -0.03574,0.04359 -0.0026,0.07599 0.01141,0.118582 0.03102,0.09463 0.01961,-0.02399 0.02171,-0.08615 0.0046,-0.138187 z m 2.069199,0 c -0.01889,-0.05751 -0.03286,-0.04039 -0.03574,0.04359 -0.0026,0.07599 0.01141,0.118582 0.03102,0.09463 0.01961,-0.02399 0.02171,-0.08615 0.0046,-0.138187 z m -0.69012,-0.941807 c 2.95e-4,-0.04959 -0.04526,-0.442676 -0.101228,-0.873569 -0.08574,-0.659716 -0.123114,-0.800454 -0.23664,-0.891168 -0.177625,-0.141938 -0.420194,-0.06463 -0.488903,0.155736 -0.02938,0.09429 -0.08212,0.425951 -0.117166,0.737007 -0.03503,0.311064 -0.07708,0.654795 -0.09342,0.763843 l -0.02971,0.198273 h 0.533234 c 0.386863,0 0.533398,-0.02471 0.533825,-0.09012 z m 0.984485,-6.9215849 c -0.0164,-0.049593 -0.02985,-0.00904 -0.02985,0.090122 0,0.099145 0.01345,0.1396981 0.02985,0.09013 0.0164,-0.049593 0.0164,-0.1306843 0,-0.180252 z m -2.09137,-0.2513378 c -0.169525,-0.014481 -0.462164,-0.014639 -0.650322,-2.874e-4 -0.188151,0.014315 -0.04945,0.026238 0.308223,0.026396 0.357675,1.437e-4 0.511617,-0.011599 0.342099,-0.02608 z m 1.417841,0.00561 c -0.04001,-0.019755 -0.119842,-0.020955 -0.177362,-0.00237 -0.05752,0.018318 -0.02479,0.034394 0.07278,0.035918 0.09755,0.00158 0.144614,-0.013517 0.104586,-0.033194 z m 0.560512,-0.00403 c -0.08942,-0.016557 -0.235742,-0.016557 -0.325157,0 -0.08942,0.016557 -0.01627,0.030075 0.162578,0.030075 0.178838,0 0.251994,-0.013518 0.162579,-0.030075 z M 25.2651,6.0107655 c -0.04066,-0.02 -0.107158,-0.02 -0.147802,0 -0.04066,0.02 -0.0074,0.036392 0.0739,0.036392 0.0813,0 0.114549,-0.0164 0.0739,-0.036392 z"
   id="path1" /><text
   xml:space="preserve"
   style="font-size:28.9211px;line-height:0.9;font-family:'Segoe MDL2 Assets';-inkscape-font-specification:'Segoe MDL2 Assets';text-align:start;writing-mode:lr-tb;direction:ltr;text-anchor:start;fill:#ffffff;stroke-width:0.903784"
   x="57.135418"
   y="26.807554"
   id="text1"
   transform="scale(0.80697373,1.2391977)"><tspan
     id="tspan1"
     x="57.135418"
     y="26.807554"
     style="font-style:normal;font-variant:normal;font-weight:bold;font-stretch:normal;font-size:26.6667px;line-height:0.9;font-family:'HoloLens MDL2 Assets';-inkscape-font-specification:'HoloLens MDL2 Assets';fill:#ffffff;stroke-width:0.903784">CSI</tspan><tspan
     x="57.135418"
     y="58.620464"
     id="tspan2"
     style="font-style:normal;font-variant:normal;font-weight:bold;font-stretch:normal;font-size:28.9211px;line-height:0.9;font-family:'HoloLens MDL2 Assets';-inkscape-font-specification:'HoloLens MDL2 Assets';fill:#ffffff;stroke-width:0.903784">EBENEZER CHURCH</tspan></text></svg>
